<?xml version="1.0" encoding="utf-8"?>
<!-- Generator: Adobe Illustrator 16.0.3, SVG Export Plug-In . SVG Version: 6.00 Build 0)  -->
<!DOCTYPE svg PUBLIC "-//W3C//DTD SVG 1.1//EN" "http://www.w3.org/Graphics/SVG/1.1/DTD/svg11.dtd">
<svg version="1.1" id="Layer_1" xmlns="http://www.w3.org/2000/svg" xmlns:xlink="http://www.w3.org/1999/xlink" x="0px" y="0px"
	 width="512px" height="512px" viewBox="0 0 512 512" enable-background="new 0 0 512 512" xml:space="preserve">
<path id="arrow-62-icon" fill="#FFFFFF" d="M256,90c91.742,0,166,74.245,166,166c0,91.741-74.244,166-166,166
	c-91.742,0-166-74.245-166-166C90,164.259,164.246,90,256,90z M256,50C142.23,50,50,142.229,50,256c0,113.771,92.23,206,206,206
	c113.771,0,206-92.229,206-206C462,142.229,369.771,50,256,50z M303.52,276.93v32.969l77.519-77.387l-77.519-77.385v32.97
	c0,0-136.162,27.71-163.501,146.774C198.227,272.546,303.52,276.93,303.52,276.93z"/>
</svg>
