<?xml version="1.0" encoding="utf-8"?>
<!-- Generator: Adobe Illustrator 16.0.3, SVG Export Plug-In . SVG Version: 6.00 Build 0)  -->
<!DOCTYPE svg PUBLIC "-//W3C//DTD SVG 1.1//EN" "http://www.w3.org/Graphics/SVG/1.1/DTD/svg11.dtd">
<svg version="1.1" id="Layer_1" xmlns="http://www.w3.org/2000/svg" xmlns:xlink="http://www.w3.org/1999/xlink" x="0px" y="0px"
	 width="512px" height="512px" viewBox="0 0 512 512" enable-background="new 0 0 512 512" xml:space="preserve">
<path id="arrow-62-icon" fill="#FFFFFF" d="M256,90c-91.742,0-166,74.245-166,166c0,91.741,74.244,166,166,166
	c91.742,0,166-74.245,166-166C422,164.259,347.754,90,256,90z M256,50c113.77,0,206,92.229,206,206c0,113.771-92.23,206-206,206
	c-113.771,0-206-92.229-206-206C50,142.229,142.229,50,256,50z M208.48,276.93v32.969l-77.52-77.386l77.52-77.385v32.97
	c0,0,136.161,27.71,163.5,146.774C313.772,272.546,208.48,276.93,208.48,276.93z"/>
</svg>
