<?xml version="1.0" encoding="utf-8"?>
<!-- Generator: Adobe Illustrator 16.0.3, SVG Export Plug-In . SVG Version: 6.00 Build 0)  -->
<!DOCTYPE svg PUBLIC "-//W3C//DTD SVG 1.1//EN" "http://www.w3.org/Graphics/SVG/1.1/DTD/svg11.dtd">
<svg version="1.1" id="Layer_1" xmlns="http://www.w3.org/2000/svg" xmlns:xlink="http://www.w3.org/1999/xlink" x="0px" y="0px"
	 width="100px" height="100px" viewBox="0 0 100 100" enable-background="new 0 0 100 100" xml:space="preserve">
<path id="arrow-62-icon" fill="#FFFFFF" d="M50,12.475c-21.154,0-38.277,17.118-38.277,38.275c0,21.154,17.12,38.277,38.277,38.277
	c21.154,0,38.277-17.12,38.277-38.277C88.277,29.598,71.157,12.475,50,12.475z M50,3.25c26.232,0,47.5,21.268,47.5,47.5
	c0,26.234-21.268,47.5-47.5,47.5c-26.234,0-47.5-21.266-47.5-47.5C2.5,24.518,23.766,3.25,50,3.25z M39.042,55.576v7.602
	L21.168,45.334L39.042,27.49v7.603c0,0,31.397,6.39,37.701,33.845C63.32,54.564,39.042,55.576,39.042,55.576z"/>
</svg>
