<?xml version="1.0" encoding="utf-8"?>
<!-- Generator: Adobe Illustrator 16.0.3, SVG Export Plug-In . SVG Version: 6.00 Build 0)  -->
<!DOCTYPE svg PUBLIC "-//W3C//DTD SVG 1.1//EN" "http://www.w3.org/Graphics/SVG/1.1/DTD/svg11.dtd">
<svg version="1.1" id="Layer_1" xmlns="http://www.w3.org/2000/svg" xmlns:xlink="http://www.w3.org/1999/xlink" x="0px" y="0px"
	 width="100px" height="100px" viewBox="0 0 100 100" enable-background="new 0 0 100 100" xml:space="preserve">
<path id="arrow-62-icon" fill="#FFFFFF" d="M50,89.026c-21.154,0-38.277-17.119-38.277-38.276c0-21.154,17.12-38.277,38.277-38.277
	c21.154,0,38.277,17.12,38.277,38.277C88.277,71.903,71.157,89.026,50,89.026z M50,98.25c26.233,0,47.5-21.267,47.5-47.5
	c0-26.234-21.267-47.5-47.5-47.5c-26.234,0-47.5,21.266-47.5,47.5C2.5,76.983,23.766,98.25,50,98.25z M39.042,45.924v-7.602
	L21.168,56.166L39.042,74.01v-7.603c0,0,31.397-6.39,37.701-33.844C63.321,46.935,39.042,45.924,39.042,45.924z"/>
</svg>
