<?xml version="1.0" encoding="utf-8"?>
<!-- Generator: Adobe Illustrator 16.0.3, SVG Export Plug-In . SVG Version: 6.00 Build 0)  -->
<!DOCTYPE svg PUBLIC "-//W3C//DTD SVG 1.1//EN" "http://www.w3.org/Graphics/SVG/1.1/DTD/svg11.dtd">
<svg version="1.1" id="Layer_1" xmlns="http://www.w3.org/2000/svg" xmlns:xlink="http://www.w3.org/1999/xlink" x="0px" y="0px"
	 width="512px" height="512px" viewBox="0 0 512 512" enable-background="new 0 0 512 512" xml:space="preserve">
<path id="thumb-14-icon" fill="#FFFFFF" d="M256,90c44.34,0,86.025,17.267,117.38,48.62C404.732,169.974,422,211.66,422,256
	s-17.268,86.026-48.62,117.38C342.025,404.733,300.34,422,256,422s-86.026-17.267-117.38-48.62C107.268,342.026,90,300.34,90,256
	s17.268-86.026,48.62-117.38C169.974,107.267,211.66,90,256,90 M256,50C142.229,50,50,142.229,50,256c0,113.771,92.229,206,206,206
	c113.771,0,206-92.229,206-206C462,142.229,369.771,50,256,50z M286.971,356.615c-31.997-3.604-49.131-29.77-120.64-29.77
	c0-24.658,0-88.529,0-88.529c61.968,0,87.92-41.799,97.799-73.42c3.767-12.057,7.587-29.629,22.033-25.476
	c16.728,4.809,14.336,48.331,4.021,77.098c11.711,8.472,30.222,17.382,61.485,13.479c-0.715,10.546-1.897,19.27-9.723,21.487
	l-9.646,2.556c-3.393,1.025-5.304,4.605-4.276,7.993c1.025,3.392,4.606,5.306,7.994,4.278l10.047-3.014
	c-2.052,13.467-3.041,20.893-12.146,23.651l-7.235,2.301c-3.39,1.022-5.302,4.604-4.28,7.99c1.026,3.39,4.607,5.311,7.999,4.28
	l9.352-3.179c-1.617,12.154-2.784,20.345-11.597,23.011l-7.046,2.549c-3.394,1.023-5.305,4.604-4.279,7.994
	c1.027,3.39,4.605,5.305,7.992,4.275l7.566-2.672C329.633,352.877,310.91,359.313,286.971,356.615z"/>
</svg>
