<?xml version="1.0" encoding="utf-8"?>
<!-- Generator: Adobe Illustrator 17.0.0, SVG Export Plug-In . SVG Version: 6.00 Build 0)  -->
<!DOCTYPE svg PUBLIC "-//W3C//DTD SVG 1.1//EN" "http://www.w3.org/Graphics/SVG/1.1/DTD/svg11.dtd">
<svg version="1.1" id="Layer_1" xmlns="http://www.w3.org/2000/svg" xmlns:xlink="http://www.w3.org/1999/xlink" x="0px" y="0px"
	 width="512px" height="512px" viewBox="0 0 512 512" enable-background="new 0 0 512 512" xml:space="preserve">
<path id="arrow-4-icon" fill="#FFFFFF" d="M160.879,312.387V205.609h117.064v-39.627l93.178,93.016l-93.178,93.018v-39.629H160.879z
	 M90,256c0,91.756,74.258,166,166,166c91.755,0,166-74.258,166-166c0-91.755-74.258-166-166-166C164.245,90,90,164.259,90,256z
	 M462,256c0,113.771-92.229,206-206,206S50,369.771,50,256S142.229,50,256,50S462,142.229,462,256z"/>
</svg>
