<?xml version="1.0" encoding="utf-8"?>
<!-- Generator: Adobe Illustrator 16.0.3, SVG Export Plug-In . SVG Version: 6.00 Build 0)  -->
<!DOCTYPE svg PUBLIC "-//W3C//DTD SVG 1.1//EN" "http://www.w3.org/Graphics/SVG/1.1/DTD/svg11.dtd">
<svg version="1.1" id="Layer_1" xmlns="http://www.w3.org/2000/svg" xmlns:xlink="http://www.w3.org/1999/xlink" x="0px" y="0px"
	 width="100px" height="66.181px" viewBox="0 0 100 66.181" enable-background="new 0 0 100 66.181" xml:space="preserve">
<g>
	<g>
		<defs>
			<path id="SVGID_1_" d="M3.01,0.756c-0.942,0-1.708,0.768-1.708,1.709v61.526c0,0.942,0.767,1.709,1.708,1.709h95.28
				c0.942,0,1.71-0.767,1.71-1.709V2.465c0-0.942-0.768-1.709-1.71-1.709H3.01z"/>
		</defs>
		<clipPath id="SVGID_2_">
			<use xlink:href="#SVGID_1_"  overflow="visible"/>
		</clipPath>
		<path clip-path="url(#SVGID_2_)" fill-rule="evenodd" clip-rule="evenodd" fill="#D6EFF6" d="M99.951-0.028H1.09
			c-0.169,0-0.308,0.138-0.308,0.309v68.015c0,0.171,0.138,0.307,0.308,0.307h98.861c0.172,0,0.31-0.136,0.31-0.307V0.281
			C100.261,0.11,100.123-0.028,99.951-0.028"/>
		<path clip-path="url(#SVGID_2_)" fill-rule="evenodd" clip-rule="evenodd" fill="#1C82BC" d="M100.402,7.073V0.258
			c0-0.171-0.138-0.307-0.312-0.307H1.019c-0.17,0-0.308,0.136-0.308,0.307v6.814c0,0.17,0,1.285,0,1.285h99.691
			C100.402,8.357,100.402,7.243,100.402,7.073"/>
		<path clip-path="url(#SVGID_2_)" fill-rule="evenodd" clip-rule="evenodd" fill="#24658A" d="M100.402,10.616V8.444
			c0-0.054-0.138-0.098-0.312-0.098H1.019c-0.17,0-0.308,0.044-0.308,0.098v2.172c0,0.054,0,0.41,0,0.41h99.691
			C100.402,11.026,100.402,10.67,100.402,10.616"/>
		
			<rect x="35.954" y="3.715" clip-path="url(#SVGID_2_)" fill-rule="evenodd" clip-rule="evenodd" fill="#FFFFFF" width="31.829" height="2.903"/>
		
			<rect x="8.623" y="9.369" clip-path="url(#SVGID_2_)" fill-rule="evenodd" clip-rule="evenodd" fill="#FFFFFF" width="2.974" height="0.85"/>
		<polyline clip-path="url(#SVGID_2_)" fill-rule="evenodd" clip-rule="evenodd" fill="#FFFFFF" points="16.028,9.369 
			16.028,10.218 13.055,10.218 13.055,9.369 		"/>
		
			<rect x="17.61" y="9.369" clip-path="url(#SVGID_2_)" fill-rule="evenodd" clip-rule="evenodd" fill="#FFFFFF" width="2.973" height="0.85"/>
		<polyline clip-path="url(#SVGID_2_)" fill-rule="evenodd" clip-rule="evenodd" fill="#FFFFFF" points="90.6,9.369 90.6,10.218 
			87.626,10.218 87.626,9.369 		"/>
		<polyline clip-path="url(#SVGID_2_)" fill-rule="evenodd" clip-rule="evenodd" fill="#FFFFFF" points="86.046,9.369 
			86.046,10.218 83.071,10.218 83.071,9.369 		"/>
	</g>
	<path fill-rule="evenodd" clip-rule="evenodd" fill="#FFFFFF" d="M20.432,6.837c-0.031-0.01-0.063-0.019-0.093-0.028
		c-0.185-0.059-0.314-0.231-0.314-0.426c0-1.225,0-2.449,0-3.674c0-0.259,0.204-0.452,0.476-0.452c1.046,0,2.093,0,3.14,0
		c0.175,0,0.353-0.011,0.525,0.011c0.241,0.031,0.388,0.219,0.388,0.462c0,0.742,0,1.482,0,2.224c0,0.46,0,0.921,0,1.383
		c0,0.262-0.127,0.423-0.381,0.487c-0.009,0.002-0.018,0.009-0.027,0.014H20.432z M22.472,5.919
		c0.002-0.043,0.004-0.078,0.004-0.113c0.001-0.295,0-0.591,0.001-0.887c0-0.04,0.001-0.082,0.006-0.122
		c0.017-0.143,0.15-0.266,0.301-0.279c0.162-0.014,0.279,0.062,0.324,0.217c0.016,0.055,0.023,0.115,0.024,0.172
		c0.003,0.313,0.003,0.626,0,0.939c0,0.062,0.019,0.08,0.079,0.079c0.165-0.003,0.331-0.004,0.497,0
		c0.062,0.001,0.077-0.021,0.077-0.079c-0.002-0.332,0.001-0.662-0.003-0.993c-0.001-0.093-0.009-0.188-0.03-0.28
		c-0.062-0.268-0.216-0.461-0.493-0.526c-0.282-0.066-0.541-0.027-0.741,0.209c-0.009,0.01-0.021,0.016-0.041,0.032
		c0-0.066,0.005-0.12-0.002-0.172c-0.003-0.021-0.033-0.054-0.05-0.055c-0.181-0.004-0.362-0.004-0.542,0
		c-0.019,0-0.05,0.034-0.052,0.053c-0.005,0.053,0.003,0.107,0.003,0.16c-0.001,0.509-0.004,1.019-0.006,1.527
		c0,0.038,0.003,0.076,0.005,0.117H22.472z M21.535,4.06c-0.205,0-0.4-0.001-0.596,0.003c-0.017,0-0.046,0.037-0.047,0.059
		c-0.005,0.091-0.003,0.183-0.003,0.274c0,0.479,0.001,0.958-0.001,1.437c0,0.076,0.023,0.096,0.096,0.093
		c0.155-0.004,0.311-0.001,0.467-0.001c0.026,0,0.053-0.002,0.084-0.004V4.06z M20.856,3.489c0,0.196,0.146,0.333,0.355,0.334
		c0.213,0.001,0.371-0.14,0.371-0.331c0-0.189-0.151-0.323-0.359-0.323C21.006,3.168,20.856,3.298,20.856,3.489"/>
	<path fill-rule="evenodd" clip-rule="evenodd" fill="#FFFFFF" d="M19.471,5.914h-0.546c-0.01-0.089-0.02-0.176-0.028-0.262
		c-0.011,0-0.019-0.002-0.021,0c-0.318,0.388-0.886,0.415-1.233,0.056c-0.385-0.398-0.356-1.195,0.059-1.55
		c0.253-0.215,0.545-0.267,0.858-0.17c0.094,0.028,0.177,0.092,0.268,0.142V3.185h0.643V5.914z M18.83,4.936L18.83,4.936
		c0-0.046-0.002-0.092,0.001-0.137c0.015-0.167-0.102-0.324-0.247-0.372c-0.167-0.058-0.354,0-0.458,0.137
		c-0.147,0.196-0.15,0.565-0.002,0.762c0.098,0.131,0.276,0.187,0.444,0.138c0.157-0.047,0.252-0.17,0.261-0.346
		C18.832,5.058,18.83,4.997,18.83,4.936"/>
	<path fill-rule="evenodd" clip-rule="evenodd" fill="#FFFFFF" d="M15.55,5.917c-0.264,0-0.508,0.001-0.751-0.003
		c-0.022,0-0.051-0.028-0.065-0.049c-0.14-0.222-0.278-0.444-0.417-0.667c-0.014-0.024-0.03-0.046-0.048-0.073
		c-0.048,0.059-0.095,0.112-0.136,0.171c-0.016,0.022-0.023,0.056-0.023,0.084c-0.002,0.175-0.001,0.351-0.001,0.532h-0.625V3.184
		h0.622v1.58c0.025-0.029,0.038-0.042,0.048-0.056c0.162-0.225,0.325-0.45,0.486-0.676c0.026-0.037,0.055-0.051,0.101-0.05
		c0.226,0.003,0.453,0.001,0.701,0.001c-0.251,0.272-0.49,0.53-0.73,0.79C14.989,5.152,15.263,5.527,15.55,5.917"/>
	<path fill-rule="evenodd" clip-rule="evenodd" fill="#FFFFFF" d="M17.254,5.142h-1.323c0.008,0.104,0.05,0.181,0.125,0.239
		c0.115,0.09,0.251,0.128,0.393,0.124c0.205-0.006,0.409-0.03,0.627-0.046c0.021,0.098,0.048,0.219,0.069,0.341
		c0.002,0.015-0.022,0.045-0.04,0.051c-0.386,0.122-0.778,0.163-1.169,0.033c-0.338-0.112-0.542-0.354-0.595-0.708
		c-0.057-0.367,0.023-0.7,0.296-0.966c0.361-0.353,1.036-0.36,1.37-0.02c0.15,0.154,0.225,0.345,0.245,0.555
		C17.263,4.874,17.254,5.006,17.254,5.142 M16.668,4.725c0.025-0.208-0.123-0.379-0.334-0.39c-0.205-0.011-0.404,0.18-0.402,0.39
		H16.668z"/>
	<path fill-rule="evenodd" clip-rule="evenodd" fill="#FFFFFF" d="M13.213,5.914h-0.632V5.829c0-0.303,0-0.606-0.001-0.909
		c0-0.053-0.005-0.107-0.016-0.159c-0.041-0.172-0.148-0.254-0.315-0.249c-0.161,0.004-0.299,0.114-0.329,0.267
		c-0.008,0.039-0.011,0.081-0.011,0.121c-0.001,0.308,0,0.616,0,0.924v0.087h-0.626V4.074h0.624v0.243
		c0.021-0.019,0.033-0.026,0.041-0.037c0.194-0.247,0.453-0.293,0.741-0.229c0.282,0.063,0.436,0.258,0.499,0.529
		c0.02,0.09,0.029,0.186,0.03,0.28c0.003,0.334,0.001,0.667,0,1C13.216,5.875,13.215,5.89,13.213,5.914"/>
	<polygon fill-rule="evenodd" clip-rule="evenodd" fill="#FFFFFF" points="8.456,3.183 9.083,3.183 9.083,5.359 10.195,5.359 
		10.195,5.914 8.456,5.914 	"/>
	<rect x="10.405" y="4.072" fill-rule="evenodd" clip-rule="evenodd" fill="#FFFFFF" width="0.625" height="1.842"/>
	<path fill-rule="evenodd" clip-rule="evenodd" fill="#FFFFFF" d="M10.725,3.813C10.466,3.813,10.3,3.608,10.38,3.396
		c0.022-0.063,0.075-0.122,0.129-0.16c0.101-0.071,0.22-0.073,0.337-0.042c0.15,0.042,0.244,0.174,0.23,0.318
		c-0.015,0.16-0.135,0.281-0.297,0.299C10.757,3.813,10.733,3.813,10.725,3.813"/>
	<path fill-rule="evenodd" clip-rule="evenodd" fill="#1C82BC" d="M22.472,5.919h-0.64c-0.001-0.042-0.005-0.079-0.005-0.117
		c0.002-0.509,0.004-1.018,0.006-1.527c0-0.053-0.009-0.107-0.004-0.16c0.002-0.02,0.034-0.053,0.052-0.053
		c0.18-0.003,0.361-0.003,0.542,0c0.018,0.001,0.047,0.034,0.05,0.055c0.007,0.052,0.002,0.106,0.002,0.172
		c0.02-0.016,0.032-0.022,0.041-0.032c0.2-0.236,0.458-0.276,0.741-0.209c0.277,0.065,0.431,0.259,0.493,0.526
		c0.021,0.092,0.029,0.187,0.03,0.28c0.004,0.331,0,0.662,0.003,0.993c0,0.058-0.015,0.081-0.077,0.079
		c-0.166-0.004-0.332-0.003-0.497,0c-0.06,0.001-0.08-0.017-0.079-0.079c0.004-0.313,0.004-0.625,0-0.939
		c0-0.058-0.008-0.117-0.024-0.172c-0.044-0.155-0.162-0.231-0.324-0.217c-0.151,0.013-0.284,0.136-0.301,0.279
		c-0.004,0.04-0.006,0.082-0.006,0.122c-0.001,0.296,0,0.591-0.001,0.887C22.477,5.841,22.474,5.875,22.472,5.919"/>
	<path fill-rule="evenodd" clip-rule="evenodd" fill="#1C82BC" d="M21.534,4.06v1.86c-0.031,0.001-0.058,0.003-0.083,0.004
		c-0.156,0-0.312-0.003-0.467,0.002c-0.072,0.002-0.096-0.018-0.096-0.094c0.003-0.478,0.001-0.958,0.001-1.437
		c0-0.092-0.002-0.183,0.003-0.274c0.001-0.022,0.03-0.059,0.047-0.059C21.135,4.059,21.33,4.06,21.534,4.06"/>
	<path fill-rule="evenodd" clip-rule="evenodd" fill="#1C82BC" d="M20.856,3.489c0-0.19,0.15-0.32,0.368-0.32
		c0.208,0,0.358,0.134,0.359,0.323c0,0.191-0.158,0.332-0.371,0.331C21.001,3.822,20.855,3.685,20.856,3.489"/>
	<polygon fill="#FFFFFF" points="80.716,4.688 78.468,4.688 79.592,5.618 	"/>
	<polygon fill="#FFFFFF" points="78.41,5.029 78.41,6.299 80.778,6.299 80.778,5.026 79.592,6.007 	"/>
	<rect x="78.124" y="4.402" fill="#1C82BC" width="0.015" height="2.183"/>
	<path fill="#FFFFFF" d="M86.395,6.37h-1.368c0-0.302-0.024-0.468,0.292-0.541c0.308-0.071,0.611-0.134,0.466-0.404
		c-0.435-0.8-0.124-1.253,0.342-1.253c0.458,0,0.812,0.451,0.343,1.253c-0.114,0.195-0.234,0.361-0.234,0.542
		C86.234,6.122,86.294,6.264,86.395,6.37 M87.228,5.966c0,0.222-0.181,0.403-0.403,0.403c-0.224,0-0.403-0.181-0.403-0.403
		c0-0.224,0.18-0.404,0.403-0.404C87.047,5.562,87.228,5.743,87.228,5.966 M87.071,5.904h-0.175V5.729h-0.134v0.174h-0.176v0.135
		h0.176v0.175h0.134V6.039h0.175V5.904z"/>
	<path fill="#FFFFFF" d="M82.413,6.363h-0.218V4.42h0.218V6.363z M83.91,4.565c0,0-0.136,0.12-0.316,0.12
		c-0.285,0-0.292-0.244-0.62-0.244c-0.179,0-0.345,0.083-0.417,0.143v1.023c0.102-0.07,0.253-0.142,0.418-0.142
		c0.311,0,0.354,0.233,0.632,0.233c0.179,0,0.304-0.116,0.304-0.116V4.565z"/>
	<path fill="#FFFFFF" d="M90.377,4.199h-2.165c-0.061,0-0.107,0.049-0.107,0.109v1.973c0,0.06,0.047,0.109,0.107,0.109h2.165
		c0.06,0,0.108-0.049,0.108-0.109V4.308C90.485,4.248,90.437,4.199,90.377,4.199"/>
	<rect x="88.248" y="4.374" fill="#AFE0E9" width="2.095" height="1.836"/>
	<g>
		<defs>
			<rect id="SVGID_3_" x="88.451" y="4.452" width="1.757" height="1.758"/>
		</defs>
		<clipPath id="SVGID_4_">
			<use xlink:href="#SVGID_3_"  overflow="visible"/>
		</clipPath>
		<path clip-path="url(#SVGID_4_)" fill="#2886C7" d="M91.133,6.497c0,0,0.262-0.377,0.327-0.282
			c0.162,0.235,0.164,0.362-0.256,0.446C91.164,6.602,91.133,6.497,91.133,6.497"/>
		<path clip-path="url(#SVGID_4_)" fill="#1E1E4E" d="M88.984,5.735c0,0-0.405,0.167-0.481,0.244c-0.041,0.03-0.091,0.52-0.09,1.198
			c-0.035,0.069,1.578,0.04,1.618,0.004c0.041-0.036,0.02-1.025-0.03-1.085c-0.051-0.06-0.406-0.27-0.432-0.288
			C89.543,5.79,89.012,5.75,88.984,5.735"/>
		<path clip-path="url(#SVGID_4_)" fill="#1F76BB" d="M89.484,5.652c0.005-0.006-0.021,0.298,0.031,0.332l-0.094,0.141l-0.351-0.36
			c0,0-0.016-0.179-0.043-0.209C89,5.525,89.484,5.652,89.484,5.652"/>
		<path clip-path="url(#SVGID_4_)" fill="#1F76BB" d="M89.009,5.481c0,0,0.047,0.248,0.057,0.311
			c0.009,0.039,0.396,0.437,0.438,0.178c0.009-0.043-0.025-0.299-0.019-0.31S89.009,5.481,89.009,5.481"/>
		<path clip-path="url(#SVGID_4_)" fill="#156794" d="M89.143,5.637c0,0,0.176,0.126,0.041,0.245c0,0,0.264,0.135,0.301,0
			c0.019-0.017,0.005-0.188-0.001-0.195C89.475,5.674,89.218,5.661,89.143,5.637"/>
		<path clip-path="url(#SVGID_4_)" fill="#186DA7" d="M89.047,5.344c0.028-0.042,0.121-0.05,0.208,0.108
			c0.076,0.138,0.22,0.221,0.325,0.223c-0.004,0.002-0.01,0.003-0.016,0.005c-0.157,0.024-0.339-0.007-0.476-0.119
			C89.079,5.509,89.038,5.354,89.047,5.344"/>
		<path clip-path="url(#SVGID_4_)" fill="#1F76BB" d="M88.89,4.949c0,0,0.016-0.251,0.235-0.351c0.007-0.002,0.558-0.046,0.51,0.336
			c-0.041-0.014-0.078,0.026-0.173,0.068c-0.099,0.042-0.226-0.014-0.252-0.003c-0.027,0.012-0.029,0.198,0.048,0.262
			c0.077,0.064,0.109,0.063,0.182,0.178c0.056,0.086,0.123,0.045,0.187,0.017c-0.023,0.1,0.006,0.196-0.046,0.219
			c-0.105-0.002-0.252-0.072-0.327-0.21c-0.087-0.159-0.172-0.165-0.2-0.122c-0.006,0.01,0.026,0.166,0.036,0.218
			C88.951,5.446,88.861,5.251,88.89,4.949"/>
		<path clip-path="url(#SVGID_4_)" fill="#2081C4" d="M89.445,5.486c-0.098-0.088-0.145-0.142-0.221-0.206
			c-0.077-0.063-0.042-0.27-0.015-0.281c0.026-0.011,0.161,0.04,0.248-0.001c0.095-0.045,0.136-0.077,0.177-0.063
			c-0.001,0.008-0.002,0.018-0.004,0.026c-0.008,0.047-0.015,0.092,0.025,0.171c0.022,0.041,0.015,0.145,0.002,0.202
			c-0.012,0.045-0.031,0.117-0.041,0.161C89.555,5.526,89.491,5.527,89.445,5.486"/>
		<path clip-path="url(#SVGID_4_)" fill="#1E1E4E" d="M89.203,4.886c0,0,0.197,0.149,0.315-0.062c0.117-0.21,0.104-0.276,0.11-0.295
			c0.007-0.019-0.048,0.07-0.113,0.074C89.45,4.608,89.45,4.532,89.479,4.47c0.029-0.063-0.037,0.066-0.161,0.026
			c-0.126-0.04-0.156,0.057-0.233,0.006c-0.06,0.006-0.14,0.084-0.188,0.167c-0.046,0.082-0.176,0.119-0.187,0.119
			c-0.013,0,0.076,0.042,0.117,0.029c0.038-0.013-0.088,0.203-0.028,0.432c0.057-0.083,0.051,0.028,0.128,0.113
			c0.08,0.085-0.034-0.056-0.001-0.178c0.036-0.122,0.151-0.181,0.231-0.139c0.044,0.024-0.074-0.097,0.076-0.119"/>
		<path clip-path="url(#SVGID_4_)" fill="#1E1E4E" d="M89.55,4.656c0,0,0.087,0.081,0.137,0.081c0.051,0-0.016,0.041-0.081,0.025
			C89.539,4.746,89.7,4.698,89.76,4.899c0.008,0.029-0.168-0.143-0.262-0.043"/>
		<path clip-path="url(#SVGID_4_)" fill="#11669F" d="M89.075,5.243c0,0-0.044-0.121-0.108-0.09
			c-0.066,0.031-0.041,0.242,0.088,0.345c0,0-0.168-0.202-0.094-0.303C89.015,5.119,89.075,5.243,89.075,5.243"/>
		<path clip-path="url(#SVGID_4_)" fill="#1E1E4E" d="M88.933,5.166c0,0,0.07-0.073,0.104-0.009
			c0.033,0.065,0.057,0.142,0.057,0.152c0,0.011,0.008-0.086,0.031-0.086s-0.003-0.028-0.008-0.057
			c-0.004-0.028,0.016,0,0.013-0.033C89.125,5.1,89.07,5.05,89.146,5.05C89.222,5.051,88.979,4.932,88.933,5.166"/>
		<path clip-path="url(#SVGID_4_)" fill="#156794" d="M89.57,5.68c0,0-0.46,0.073-0.485-0.136C89.085,5.544,89.341,5.729,89.57,5.68
			"/>
		<path clip-path="url(#SVGID_4_)" fill="#1E1E4E" d="M89.623,4.957c-0.004-0.001-0.096-0.02-0.127,0.003
			c-0.012,0.004-0.004,0.034,0.012,0.032c0.023-0.002,0.093-0.017,0.109-0.015C89.635,4.979,89.638,4.97,89.623,4.957"/>
		<path clip-path="url(#SVGID_4_)" fill="#1E1E4E" d="M89.19,5.036c0.003-0.003,0.116-0.051,0.148-0.043
			c0.012-0.002,0.027,0.03,0.013,0.036c-0.021,0.009-0.139,0.024-0.153,0.031C89.183,5.067,89.157,5.057,89.19,5.036"/>
		<path clip-path="url(#SVGID_4_)" fill="#2C3170" d="M88.94,4.736c-0.007,0-0.089,0.072-0.095,0.158
			c-0.004,0.086-0.004-0.072,0.096-0.152"/>
		<path clip-path="url(#SVGID_4_)" fill="#2C3170" d="M89.078,5.051c0,0-0.017,0.063,0.015,0.087c0,0-0.018-0.006-0.023-0.025
			c-0.007-0.019,0.009,0.066,0.037,0.084c0,0-0.04-0.015-0.069-0.089c-0.028-0.076-0.001-0.113-0.001-0.113
			S89.018,5.102,89.078,5.051"/>
		<path clip-path="url(#SVGID_4_)" fill="#2C3170" d="M88.914,4.96c0.001-0.001-0.1,0.077-0.108,0.182c0,0,0.016-0.07,0.053-0.087
			c0.037-0.018-0.001,0.086,0.026,0.174c0,0-0.014-0.19,0.042-0.205C88.927,5.025,88.859,5.025,88.914,4.96"/>
		<path clip-path="url(#SVGID_4_)" fill="#2C3170" d="M89.18,4.783c0,0,0.003,0.137,0.199,0.11c0.101-0.015,0.077-0.077,0.156-0.1
			c0,0-0.035-0.02-0.153,0.073c0,0-0.05,0.008,0.012-0.071C89.394,4.795,89.235,4.899,89.18,4.783"/>
		<path clip-path="url(#SVGID_4_)" fill="#2C3170" d="M89.114,4.555c0.004,0.001,0.089-0.009,0.131-0.038
			c0,0-0.075,0.063-0.134,0.04"/>
		<path clip-path="url(#SVGID_4_)" fill="#2C3170" d="M89.089,4.552c-0.003,0-0.088-0.024-0.113,0.068
			c-0.025,0.092,0.001-0.055,0.11-0.068"/>
		<path clip-path="url(#SVGID_4_)" fill="#2C3170" d="M89.111,4.625c0,0,0.195,0.026,0.268-0.09c0,0,0,0.063-0.038,0.103
			c0,0,0.084,0.002,0.093-0.064C89.441,4.507,89.476,4.784,89.111,4.625"/>
		<path clip-path="url(#SVGID_4_)" fill="#2C3170" d="M89.046,4.694c0.001-0.005-0.104,0.066-0.06,0.175
			c0,0-0.002-0.096,0.044-0.097c0,0-0.049,0.046,0.099,0.188C89.129,4.959,89.011,4.813,89.046,4.694"/>
		<path clip-path="url(#SVGID_4_)" fill="#2C3170" d="M89.561,4.742c0,0,0.124,0.003,0.165,0.112
			C89.726,4.854,89.678,4.769,89.561,4.742"/>
		<path clip-path="url(#SVGID_4_)" fill="#2C3170" d="M89.419,4.696c0.004,0.001,0.128-0.026,0.155-0.097
			c0,0-0.06,0.136-0.151,0.098"/>
		<polygon clip-path="url(#SVGID_4_)" fill="#11669F" points="89.442,5.097 89.472,5.417 89.39,5.355 		"/>
		<polygon clip-path="url(#SVGID_4_)" fill="#11669F" points="89.589,5.393 89.468,5.414 89.496,5.44 		"/>
		<path clip-path="url(#SVGID_4_)" fill="#131B43" d="M88.986,5.747c0,0,0.085,0.062,0.208,0.159
			c0.061,0.05,0.133,0.106,0.203,0.177c0.017,0.018,0.035,0.036,0.049,0.062c0.013,0.026,0.018,0.052,0.022,0.078
			c0.011,0.05,0.021,0.102,0.027,0.155c0.06,0.416,0.079,0.834,0.079,0.834s-0.015-0.104-0.035-0.26
			c-0.021-0.155-0.047-0.363-0.077-0.57c-0.007-0.052-0.016-0.103-0.025-0.153c-0.005-0.025-0.01-0.049-0.019-0.07
			c-0.011-0.018-0.027-0.037-0.043-0.055c-0.067-0.069-0.136-0.131-0.194-0.183C89.063,5.817,88.986,5.747,88.986,5.747"/>
		<path clip-path="url(#SVGID_4_)" fill="#1F76BB" d="M89.143,7c0,0,0.14,0.001,0.204,0.011c0.063,0.01,0.11,0.031,0.179,0.045
			c0.073,0.016,0.339,0.027,0.339,0.068c0,0,0.045,0.028-0.422,0.062c-0.089,0.012-0.114-0.02-0.171-0.028
			c-0.057-0.007-0.128,0-0.128,0"/>
		<path clip-path="url(#SVGID_4_)" fill="#1E1E4E" d="M90.001,6.097c0,0,0.419,0.607,0.436,0.617
			c0.018,0.009,0.742-0.329,0.742-0.329s0.146,0.342,0.215,0.333c0.067-0.008-0.821,0.46-0.957,0.471
			c-0.137,0.012-0.384-0.283-0.384-0.283"/>
		<path clip-path="url(#SVGID_4_)" fill="#131B43" d="M89.419,6.13c0,0,0.009-0.021,0.022-0.052c0.016-0.03,0.039-0.068,0.063-0.105
			c0.025-0.035,0.051-0.071,0.073-0.095c0.021-0.025,0.039-0.04,0.039-0.04s-0.009,0.021-0.024,0.051
			c-0.015,0.031-0.038,0.068-0.061,0.105c-0.026,0.036-0.053,0.071-0.074,0.095C89.436,6.115,89.419,6.13,89.419,6.13"/>
		<path clip-path="url(#SVGID_4_)" fill="#1E1E4E" d="M88.831,6.249l-0.079,0.655l0.455,0.067l0.055,0.25
			c0,0-0.77,0.005-0.838-0.034"/>
		<path clip-path="url(#SVGID_4_)" fill="#131B43" d="M88.831,6.249c-0.021,0.219-0.046,0.438-0.07,0.657l-0.008-0.009l0.455,0.063
			l0.009,0.001l0.001,0.008l0.052,0.25l0.003,0.011h-0.011c-0.142,0-0.281-0.002-0.421-0.005c-0.069-0.002-0.139-0.003-0.209-0.01
			c-0.07-0.005-0.141-0.006-0.208-0.027c0.068,0.018,0.139,0.017,0.208,0.02l0.209,0.004c0.14,0.001,0.28,0.001,0.419,0
			l-0.008,0.012l-0.056-0.25l0.008,0.009l-0.453-0.07l-0.008-0.001l0.001-0.008C88.771,6.686,88.8,6.467,88.831,6.249"/>
		<path clip-path="url(#SVGID_4_)" fill="#2886C7" d="M91.21,6.403c0,0,0.038-0.147,0.049-0.176
			c0.009-0.029,0.085-0.142,0.103-0.139c0.016,0.003,0.06,0.068-0.021,0.103c0,0-0.021,0.046-0.001,0.061
			C91.359,6.268,91.21,6.403,91.21,6.403"/>
		<path clip-path="url(#SVGID_4_)" fill="#2886C7" d="M91.389,6.214c0,0,0.059-0.08,0.082-0.104
			c0.026-0.022,0.083-0.115,0.121-0.112c0.036,0.004,0.046,0.053-0.04,0.096c-0.039,0.036-0.069,0.123-0.104,0.145
			C91.41,6.261,91.389,6.214,91.389,6.214"/>
		<path clip-path="url(#SVGID_4_)" fill="#2886C7" d="M91.449,6.242c0,0,0.071-0.071,0.103-0.082
			c0.034-0.01,0.077-0.098,0.112-0.089c0.036,0.01,0.012,0.056-0.056,0.118C91.57,6.228,91.531,6.285,91.491,6.3
			C91.454,6.317,91.449,6.242,91.449,6.242"/>
		<path clip-path="url(#SVGID_4_)" fill="#2886C7" d="M91.462,6.447c0,0,0.043-0.051,0.074-0.063
			c0.031-0.013,0.055-0.06,0.072-0.034c0.023,0.03,0.062,0.031-0.012,0.087c-0.04,0.044-0.033,0.064-0.071,0.083
			C91.489,6.541,91.462,6.447,91.462,6.447"/>
		<path clip-path="url(#SVGID_4_)" fill="#2886C7" d="M91.44,6.342c0,0,0.047-0.046,0.08-0.056c0.033-0.01,0.06-0.054,0.078-0.026
			c0.02,0.032,0.058,0.038-0.022,0.087c-0.043,0.039-0.039,0.061-0.079,0.076C91.459,6.438,91.44,6.342,91.44,6.342"/>
		<path clip-path="url(#SVGID_4_)" fill="#131B43" d="M88.503,6.49l0.028,0.14l0.008,0.143c-0.002,0.096-0.012,0.191-0.023,0.285
			l-0.015-0.012c0.03-0.011,0.062-0.021,0.096-0.029l0.025-0.006l-0.015,0.022c-0.006,0.011-0.013,0.021-0.018,0.032
			s-0.006,0.021-0.006,0.03l-0.01-0.009c0.007-0.002,0.016-0.001,0.022-0.007c0.008-0.005,0.016-0.009,0.024-0.016
			s0.019-0.009,0.033-0.013c0.01,0.001,0.017-0.003,0.031,0.003c0.013,0.004,0.018,0.012,0.027,0.015
			c0.007,0.004,0.015,0.005,0.026,0.008c0.018,0.005,0.037,0.009,0.058,0.012c0.037,0,0.075,0.001,0.115,0
			c0.038-0.002,0.079,0.003,0.117,0.006c-0.039,0-0.079-0.003-0.117,0.002c-0.037,0.004-0.079,0.004-0.118,0.005
			c-0.021-0.002-0.04-0.006-0.06-0.01c-0.009-0.001-0.021-0.002-0.03-0.008c-0.011-0.003-0.019-0.012-0.024-0.013
			c-0.005-0.004-0.018-0.001-0.025-0.001c-0.006,0.003-0.016,0.003-0.022,0.011c-0.007,0.005-0.015,0.009-0.024,0.016
			c-0.009,0.006-0.022,0.007-0.032,0.01L88.564,7.11l-0.001-0.012c-0.002-0.015,0.001-0.03,0.006-0.042
			c0.008-0.013,0.014-0.024,0.02-0.034l0.012,0.016c-0.031,0.008-0.061,0.018-0.093,0.029l-0.017,0.006l0.002-0.018l0.018-0.141
			l0.011-0.142V6.632L88.503,6.49z"/>
		<path clip-path="url(#SVGID_4_)" fill="#131B43" d="M90.438,6.725c0,0,0.008,0.007,0.017,0.02
			c0.002,0.008,0.009,0.012,0.015,0.018c0.006,0.005,0.012,0.011,0.018,0.018c0.013,0.013,0.026,0.026,0.035,0.037
			c0.011,0.011,0.017,0.02,0.017,0.02s-0.011-0.003-0.024-0.009c-0.013-0.006-0.028-0.019-0.044-0.031
			c-0.012-0.016-0.028-0.033-0.029-0.047C90.439,6.735,90.438,6.725,90.438,6.725"/>
		<path clip-path="url(#SVGID_4_)" fill="#131B43" d="M90.433,6.732c0,0-0.003,0.01-0.008,0.024
			c-0.006,0.014-0.018,0.029-0.027,0.045c-0.013,0.016-0.024,0.029-0.033,0.041c-0.009,0.011-0.015,0.019-0.015,0.019
			s0.001-0.009,0.003-0.024c0.003-0.016,0.017-0.032,0.025-0.049c0.012-0.015,0.025-0.028,0.035-0.038
			C90.425,6.739,90.433,6.732,90.433,6.732"/>
		<path clip-path="url(#SVGID_4_)" fill="#131B43" d="M90.434,6.767c0,0,0.002,0.011,0.003,0.028c0,0.017,0.005,0.036,0.009,0.056
			c0.006,0.02,0.011,0.04,0.015,0.056s0.005,0.027,0.005,0.027s-0.007-0.008-0.017-0.022c-0.012-0.013-0.018-0.034-0.025-0.056
			c-0.003-0.023-0.005-0.047,0.002-0.062C90.429,6.778,90.434,6.767,90.434,6.767"/>
		<path clip-path="url(#SVGID_4_)" fill="#131B43" d="M90.536,6.756c0,0,0.028-0.011,0.064-0.032
			c0.034-0.024,0.09-0.048,0.142-0.072c0.053-0.026,0.109-0.042,0.151-0.053c0.042-0.012,0.07-0.018,0.07-0.018
			s-0.026,0.013-0.066,0.03c-0.04,0.018-0.095,0.035-0.146,0.062c-0.054,0.025-0.104,0.043-0.146,0.064
			c-0.02,0.01-0.037,0.011-0.05,0.016C90.542,6.755,90.536,6.756,90.536,6.756"/>
	</g>
	<path fill="#D24B49" d="M80.832,4.179c-0.284,0-0.513,0.229-0.513,0.511s0.229,0.512,0.513,0.512c0.282,0,0.511-0.229,0.511-0.512
		S81.114,4.179,80.832,4.179 M80.832,5.043c-0.039,0-0.073-0.032-0.073-0.072s0.034-0.073,0.073-0.073
		c0.04,0,0.073,0.032,0.073,0.073S80.872,5.043,80.832,5.043 M80.928,4.446c-0.006,0.05-0.05,0.289-0.065,0.367
		c-0.002,0.015-0.016,0.025-0.03,0.025l0,0c-0.017,0-0.03-0.011-0.032-0.025c-0.016-0.08-0.061-0.319-0.065-0.368
		c-0.008-0.058,0.037-0.109,0.096-0.109C80.89,4.336,80.937,4.388,80.928,4.446"/>
	<path fill="#FFFFFF" d="M80.832,4.898c-0.039,0-0.073,0.032-0.073,0.073s0.034,0.072,0.073,0.072c0.04,0,0.073-0.032,0.073-0.072
		S80.872,4.898,80.832,4.898"/>
	<path fill="#FFFFFF" d="M80.83,4.336c-0.059,0-0.104,0.051-0.096,0.109c0.005,0.048,0.05,0.288,0.065,0.368
		c0.002,0.015,0.016,0.025,0.032,0.025l0,0c0.015,0,0.028-0.01,0.03-0.025c0.016-0.078,0.06-0.317,0.065-0.367
		C80.937,4.388,80.89,4.336,80.83,4.336"/>
	<path fill="#D24B49" d="M83.928,4.179c-0.284,0-0.514,0.229-0.514,0.511s0.229,0.512,0.514,0.512c0.282,0,0.511-0.229,0.511-0.512
		S84.21,4.179,83.928,4.179 M83.929,5.043c-0.04,0-0.073-0.032-0.073-0.072s0.033-0.073,0.073-0.073
		c0.039,0,0.072,0.032,0.072,0.073S83.968,5.043,83.929,5.043 M84.024,4.446c-0.006,0.05-0.052,0.289-0.066,0.367
		c-0.002,0.015-0.015,0.025-0.029,0.025h-0.001c-0.016,0-0.028-0.011-0.032-0.025c-0.015-0.08-0.061-0.319-0.065-0.368
		c-0.007-0.058,0.037-0.109,0.096-0.109C83.985,4.336,84.032,4.388,84.024,4.446"/>
	<path fill="#FFFFFF" d="M83.929,4.898c-0.04,0-0.073,0.032-0.073,0.073s0.033,0.072,0.073,0.072c0.039,0,0.072-0.032,0.072-0.072
		S83.968,4.898,83.929,4.898"/>
	<path fill="#FFFFFF" d="M83.926,4.336c-0.059,0-0.103,0.051-0.096,0.109c0.005,0.048,0.051,0.288,0.065,0.368
		c0.004,0.015,0.017,0.025,0.032,0.025h0.001c0.015,0,0.027-0.01,0.029-0.025c0.015-0.078,0.061-0.317,0.066-0.367
		C84.032,4.388,83.985,4.336,83.926,4.336"/>
	<path fill="#FFFFFF" d="M90.009,13.646H9.477c-0.616,0-1.116,0.503-1.116,1.123V36.94c0,0.619,0.5,1.124,1.116,1.124h80.532
		c0.618,0,1.117-0.505,1.117-1.124V14.769C91.126,14.149,90.627,13.646,90.009,13.646"/>
	<rect x="8.378" y="15.445" fill="#A1D0DB" width="24.077" height="19.488"/>
	<path fill="#FFFFFF" d="M26.451,19.293H14.025c-0.342,0-0.619,0.279-0.619,0.623v11.323c0,0.346,0.277,0.625,0.619,0.625h12.426
		c0.342,0,0.619-0.279,0.619-0.625V19.916C27.07,19.572,26.793,19.293,26.451,19.293"/>
	<rect x="14.231" y="20.296" fill="#AFE0E9" width="12.022" height="10.53"/>
	<g>
		<defs>
			<rect id="SVGID_5_" x="15.402" y="20.745" width="10.085" height="10.086"/>
		</defs>
		<clipPath id="SVGID_6_">
			<use xlink:href="#SVGID_5_"  overflow="visible"/>
		</clipPath>
		<path clip-path="url(#SVGID_6_)" fill="#2886C7" d="M30.84,32.483c0,0,1.501-2.167,1.879-1.618
			c0.929,1.346,0.939,2.077-1.467,2.56C31.02,33.085,30.84,32.483,30.84,32.483"/>
		<path clip-path="url(#SVGID_6_)" fill="#1E1E4E" d="M18.517,28.11c0,0-2.326,0.962-2.771,1.399
			c-0.234,0.173-0.521,2.984-0.513,6.873c-0.206,0.396,9.056,0.231,9.29,0.027c0.233-0.202,0.109-5.879-0.175-6.226
			c-0.283-0.345-2.335-1.548-2.481-1.653C21.719,28.429,18.672,28.191,18.517,28.11"/>
		<path clip-path="url(#SVGID_6_)" fill="#1F76BB" d="M21.381,27.631c0.023-0.032-0.118,1.708,0.181,1.905l-0.537,0.81l-2.015-2.069
			c0,0-0.086-1.021-0.246-1.197C18.604,26.905,21.381,27.631,21.381,27.631"/>
		<path clip-path="url(#SVGID_6_)" fill="#1F76BB" d="M18.654,26.654c0,0,0.264,1.423,0.327,1.786
			c0.039,0.224,2.264,2.508,2.509,1.02c0.042-0.25-0.148-1.715-0.108-1.776C21.421,27.618,18.654,26.654,18.654,26.654"/>
		<path clip-path="url(#SVGID_6_)" fill="#156794" d="M19.423,27.542c0,0,1.001,0.726,0.233,1.407c0,0,1.515,0.774,1.725,0.003
			c0.104-0.103,0.023-1.077-0.011-1.123C21.32,27.76,19.845,27.685,19.423,27.542"/>
		<path clip-path="url(#SVGID_6_)" fill="#186DA7" d="M18.863,25.866c0.164-0.245,0.702-0.29,1.199,0.62
			c0.435,0.793,1.259,1.266,1.87,1.278c-0.03,0.013-0.06,0.021-0.092,0.027c-0.905,0.144-1.946-0.041-2.725-0.684
			C19.052,26.813,18.826,25.923,18.863,25.866"/>
		<path clip-path="url(#SVGID_6_)" fill="#1F76BB" d="M17.971,23.599c0,0,0.083-1.442,1.349-2.016
			c0.033-0.015,3.195-0.264,2.924,1.928c-0.24-0.078-0.442,0.152-0.994,0.394c-0.565,0.246-1.294-0.081-1.445-0.018
			c-0.151,0.064-0.165,1.136,0.277,1.503c0.442,0.366,0.624,0.36,1.045,1.017c0.322,0.498,0.703,0.263,1.06,0.099
			c-0.128,0.579,0.039,1.128-0.255,1.258c-0.611-0.012-1.449-0.413-1.882-1.208c-0.497-0.91-0.987-0.94-1.15-0.696
			c-0.039,0.057,0.152,0.952,0.216,1.248C18.325,26.455,17.805,25.332,17.971,23.599"/>
		<path clip-path="url(#SVGID_6_)" fill="#2081C4" d="M21.154,26.679c-0.558-0.505-0.821-0.813-1.263-1.18
			c-0.441-0.366-0.237-1.549-0.085-1.612c0.151-0.063,0.933,0.225,1.425-0.01c0.543-0.26,0.773-0.444,1.014-0.366
			c-0.006,0.05-0.013,0.1-0.022,0.151c-0.05,0.267-0.089,0.529,0.149,0.979c0.124,0.235,0.088,0.834,0.006,1.161
			c-0.063,0.253-0.18,0.665-0.236,0.919C21.787,26.911,21.418,26.919,21.154,26.679"/>
		<path clip-path="url(#SVGID_6_)" fill="#1E1E4E" d="M19.771,23.238c0,0,1.126,0.852,1.804-0.354
			c0.677-1.206,0.594-1.584,0.634-1.693c0.041-0.11-0.268,0.402-0.646,0.424c-0.379,0.023-0.375-0.408-0.212-0.768
			c0.164-0.36-0.211,0.379-0.932,0.15c-0.719-0.228-0.891,0.329-1.332,0.036c-0.35,0.034-0.805,0.482-1.079,0.956
			c-0.275,0.473-1.018,0.682-1.081,0.684c-0.063,0.002,0.445,0.246,0.668,0.171c0.223-0.073-0.5,1.161-0.16,2.475
			c0.329-0.476,0.291,0.16,0.746,0.651c0.455,0.491-0.203-0.325-0.009-1.025c0.196-0.7,0.867-1.04,1.327-0.797
			c0.257,0.135-0.43-0.558,0.439-0.684"/>
		<path clip-path="url(#SVGID_6_)" fill="#1E1E4E" d="M21.755,21.914c0,0,0.502,0.46,0.788,0.462
			c0.285,0.001-0.087,0.235-0.469,0.146c-0.383-0.091,0.551-0.364,0.883,0.79c0.048,0.167-0.956-0.817-1.496-0.25"/>
		<path clip-path="url(#SVGID_6_)" fill="#11669F" d="M19.025,25.285c0,0-0.243-0.7-0.616-0.521
			c-0.373,0.178-0.229,1.384,0.505,1.979c0,0-0.959-1.157-0.543-1.736C18.683,24.572,19.025,25.285,19.025,25.285"/>
		<path clip-path="url(#SVGID_6_)" fill="#1E1E4E" d="M18.209,24.837c0,0,0.412-0.418,0.601-0.047
			c0.189,0.371,0.33,0.81,0.329,0.872s0.037-0.499,0.173-0.495s-0.012-0.16-0.041-0.326c-0.029-0.166,0.087-0.006,0.067-0.192
			c-0.02-0.184-0.332-0.477,0.102-0.473C19.875,24.18,18.476,23.502,18.209,24.837"/>
		<path clip-path="url(#SVGID_6_)" fill="#156794" d="M21.871,27.794c0,0-2.637,0.416-2.781-0.777
			C19.089,27.017,20.555,28.077,21.871,27.794"/>
		<path clip-path="url(#SVGID_6_)" fill="#1E1E4E" d="M22.173,23.642c-0.015-0.013-0.544-0.114-0.723,0.016
			c-0.069,0.022-0.027,0.19,0.063,0.184c0.132-0.009,0.534-0.093,0.631-0.084C22.242,23.769,22.267,23.718,22.173,23.642"/>
		<path clip-path="url(#SVGID_6_)" fill="#1E1E4E" d="M19.692,24.096c0.017-0.011,0.668-0.287,0.854-0.252
			c0.07-0.007,0.155,0.176,0.073,0.209c-0.122,0.048-0.793,0.137-0.88,0.18C19.65,24.277,19.504,24.219,19.692,24.096"/>
		<path clip-path="url(#SVGID_6_)" fill="#2C3170" d="M18.257,22.375c-0.042,0.007-0.513,0.417-0.536,0.909
			c-0.024,0.493-0.024-0.414,0.542-0.874"/>
		<path clip-path="url(#SVGID_6_)" fill="#2C3170" d="M19.047,24.185c0,0-0.09,0.363,0.088,0.498c0,0-0.102-0.031-0.139-0.142
			c-0.039-0.11,0.055,0.377,0.214,0.481c0,0-0.225-0.083-0.39-0.511c-0.165-0.428-0.013-0.648-0.013-0.648
			S18.694,24.478,19.047,24.185"/>
		<path clip-path="url(#SVGID_6_)" fill="#2C3170" d="M18.107,23.667c0.007-0.01-0.567,0.434-0.619,1.043c0,0,0.086-0.403,0.3-0.502
			c0.214-0.099-0.004,0.498,0.155,1c0,0-0.081-1.091,0.242-1.176C18.186,24.032,17.792,24.034,18.107,23.667"/>
		<path clip-path="url(#SVGID_6_)" fill="#2C3170" d="M19.627,22.647c0,0,0.025,0.783,1.152,0.63
			c0.574-0.084,0.437-0.439,0.895-0.576c0,0-0.202-0.112-0.879,0.425c0,0-0.289,0.044,0.066-0.411
			C20.862,22.716,19.95,23.314,19.627,22.647"/>
		<path clip-path="url(#SVGID_6_)" fill="#2C3170" d="M19.258,21.333c0.021,0.008,0.513-0.047,0.747-0.213
			c0,0-0.431,0.355-0.768,0.229"/>
		<path clip-path="url(#SVGID_6_)" fill="#2C3170" d="M19.115,21.321c-0.019,0.003-0.51-0.139-0.653,0.39
			c-0.143,0.529,0.005-0.318,0.634-0.387"/>
		<path clip-path="url(#SVGID_6_)" fill="#2C3170" d="M19.238,21.737c0,0,1.123,0.15,1.537-0.517c0,0-0.002,0.363-0.212,0.591
			c0,0,0.475,0.011,0.524-0.37C21.137,21.062,21.335,22.65,19.238,21.737"/>
		<path clip-path="url(#SVGID_6_)" fill="#2C3170" d="M18.857,22.133c0.007-0.026-0.593,0.381-0.335,1.003
			c0,0-0.005-0.549,0.256-0.558c0,0-0.276,0.268,0.564,1.079C19.343,23.658,18.671,22.819,18.857,22.133"/>
		<path clip-path="url(#SVGID_6_)" fill="#2C3170" d="M21.823,22.413c0,0,0.704,0.015,0.951,0.638
			C22.773,23.051,22.487,22.563,21.823,22.413"/>
		<path clip-path="url(#SVGID_6_)" fill="#2C3170" d="M21.008,22.147c0.02,0.008,0.734-0.145,0.89-0.554c0,0-0.344,0.778-0.87,0.562
			"/>
		<polygon clip-path="url(#SVGID_6_)" fill="#11669F" points="21.141,24.445 21.309,26.282 20.839,25.927 		"/>
		<path clip-path="url(#SVGID_6_)" fill="#11669F" d="M21.98,26.143c-0.017,0.01-0.69,0.126-0.69,0.126l0.164,0.146L21.98,26.143z"
			/>
		<path clip-path="url(#SVGID_6_)" fill="#131B43" d="M18.52,28.182c0,0,0.124,0.086,0.335,0.242
			c0.209,0.159,0.514,0.38,0.863,0.666c0.176,0.142,0.365,0.297,0.563,0.464c0.198,0.168,0.403,0.349,0.604,0.553
			c0.099,0.105,0.203,0.206,0.286,0.354c0.039,0.085,0.055,0.151,0.076,0.227c0.019,0.073,0.036,0.146,0.051,0.219
			c0.061,0.294,0.11,0.591,0.154,0.89c0.085,0.596,0.157,1.194,0.214,1.755c0.031,0.279,0.053,0.552,0.077,0.809
			c0.021,0.257,0.042,0.501,0.062,0.727c0.038,0.448,0.057,0.824,0.076,1.088c0.015,0.262,0.021,0.411,0.021,0.411
			s-0.021-0.148-0.058-0.409c-0.034-0.26-0.089-0.632-0.146-1.079c-0.059-0.448-0.127-0.968-0.2-1.525
			c-0.074-0.561-0.15-1.154-0.238-1.747c-0.045-0.295-0.089-0.592-0.146-0.879c-0.015-0.071-0.03-0.143-0.047-0.212
			c-0.018-0.065-0.039-0.141-0.059-0.188c-0.055-0.108-0.155-0.216-0.248-0.315c-0.19-0.202-0.389-0.388-0.575-0.565
			c-0.188-0.175-0.369-0.339-0.538-0.487C18.97,28.579,18.52,28.182,18.52,28.182"/>
		<path clip-path="url(#SVGID_6_)" fill="#1F76BB" d="M19.423,35.362c0,0,0.797,0.01,1.166,0.065c0.37,0.055,0.637,0.173,1.03,0.259
			c0.413,0.088,1.948,0.153,1.943,0.39c0,0,0.253,0.16-2.417,0.355c-0.509,0.069-0.658-0.116-0.985-0.16
			c-0.327-0.042-0.732,0-0.732,0"/>
		<path clip-path="url(#SVGID_6_)" fill="#1E1E4E" d="M24.347,30.185c0,0,2.405,3.487,2.501,3.54
			c0.095,0.054,4.252-1.888,4.252-1.888s0.844,1.964,1.235,1.913c0.391-0.05-4.708,2.64-5.491,2.706s-2.201-1.629-2.201-1.629"/>
		<path clip-path="url(#SVGID_6_)" fill="#131B43" d="M21.006,30.374c0,0,0.042-0.125,0.127-0.294
			c0.042-0.087,0.094-0.184,0.154-0.287c0.059-0.103,0.127-0.209,0.196-0.314c0.036-0.052,0.072-0.104,0.107-0.154
			c0.035-0.053,0.074-0.1,0.109-0.146c0.072-0.095,0.141-0.181,0.207-0.253c0.13-0.146,0.226-0.227,0.226-0.227
			s-0.049,0.127-0.135,0.291c-0.042,0.083-0.095,0.184-0.155,0.283c-0.031,0.052-0.06,0.105-0.095,0.157
			c-0.033,0.053-0.067,0.104-0.102,0.158c-0.072,0.104-0.143,0.208-0.215,0.301c-0.071,0.095-0.141,0.181-0.204,0.254
			C21.102,30.287,21.006,30.374,21.006,30.374"/>
		<path clip-path="url(#SVGID_6_)" fill="#1E1E4E" d="M17.633,31.058l-0.451,3.764l2.605,0.38l0.312,1.438
			c0,0-4.415,0.029-4.803-0.189"/>
		<path clip-path="url(#SVGID_6_)" fill="#131B43" d="M17.633,31.058l-0.092,0.943l-0.098,0.943l-0.206,1.884l-0.048-0.062
			l2.607,0.37l0.044,0.007l0.01,0.043l0.306,1.439l0.016,0.071h-0.074l-1.204-0.005c-0.402-0.006-0.804-0.016-1.205-0.028
			c-0.401-0.013-0.803-0.026-1.204-0.053c-0.2-0.014-0.401-0.028-0.601-0.05c-0.1-0.011-0.2-0.021-0.299-0.038
			c-0.099-0.018-0.2-0.032-0.292-0.074c0.093,0.038,0.194,0.047,0.293,0.06c0.1,0.011,0.199,0.019,0.299,0.025
			c0.2,0.013,0.4,0.02,0.601,0.026c0.401,0.011,0.801,0.017,1.202,0.021c0.402,0.003,0.803,0.003,1.204,0.002l1.203-0.005
			l-0.058,0.071l-0.317-1.435l0.055,0.052l-2.605-0.391l-0.054-0.008l0.007-0.054l0.246-1.88l0.129-0.938L17.633,31.058z"/>
		<path clip-path="url(#SVGID_6_)" fill="#2886C7" d="M31.289,31.942c0,0,0.219-0.842,0.275-1.009
			c0.056-0.165,0.488-0.813,0.585-0.798c0.097,0.017,0.344,0.387-0.122,0.593c0,0-0.122,0.26-0.005,0.349
			C32.138,31.167,31.289,31.942,31.289,31.942"/>
		<path clip-path="url(#SVGID_6_)" fill="#2886C7" d="M32.307,30.861c0,0,0.33-0.463,0.482-0.595
			c0.149-0.131,0.471-0.664,0.683-0.641c0.212,0.022,0.274,0.305-0.224,0.55c-0.228,0.202-0.405,0.699-0.608,0.825
			C32.436,31.126,32.307,30.861,32.307,30.861"/>
		<path clip-path="url(#SVGID_6_)" fill="#2886C7" d="M32.655,31.016c0,0,0.41-0.408,0.598-0.468s0.434-0.563,0.64-0.508
			c0.206,0.055,0.06,0.318-0.319,0.682c-0.228,0.214-0.454,0.54-0.674,0.633C32.68,31.447,32.655,31.016,32.655,31.016"/>
		<path clip-path="url(#SVGID_6_)" fill="#2886C7" d="M32.729,32.199c0,0,0.24-0.296,0.423-0.368
			c0.184-0.076,0.315-0.343,0.426-0.194c0.127,0.17,0.348,0.179-0.073,0.505c-0.232,0.253-0.194,0.368-0.406,0.478
			C32.887,32.73,32.729,32.199,32.729,32.199"/>
		<path clip-path="url(#SVGID_6_)" fill="#2886C7" d="M32.612,31.597c0,0,0.269-0.27,0.457-0.325c0.19-0.056,0.349-0.31,0.443-0.149
			c0.11,0.181,0.329,0.212-0.123,0.495c-0.256,0.227-0.229,0.346-0.451,0.437C32.716,32.142,32.612,31.597,32.612,31.597"/>
		<path clip-path="url(#SVGID_6_)" fill="#131B43" d="M15.747,32.444l0.101,0.396l0.066,0.407l0.033,0.41l0.009,0.41l-0.012,0.409
			l-0.031,0.41c-0.027,0.271-0.057,0.544-0.092,0.814l-0.08-0.07c0.086-0.027,0.172-0.06,0.262-0.094
			c0.047-0.015,0.093-0.031,0.14-0.044l0.147-0.032l0.134-0.028l-0.07,0.122c-0.038,0.065-0.078,0.122-0.105,0.183
			c-0.013,0.029-0.023,0.059-0.03,0.087c-0.001,0.015-0.003,0.03-0.004,0.044l0.002,0.042l-0.061-0.051
			c0.045-0.005,0.09-0.012,0.133-0.04c0.044-0.022,0.087-0.058,0.138-0.091c0.05-0.035,0.108-0.061,0.183-0.074
			c0.029-0.001,0.052-0.006,0.088-0.005c0.035,0.002,0.07,0.009,0.103,0.021c0.068,0.03,0.104,0.068,0.148,0.089l0.035,0.015
			c0.004,0.002,0.014,0.007,0.015,0.008l0.021,0.006l0.082,0.022c0.054,0.016,0.109,0.036,0.161,0.039l0.162,0.023l0.166,0.005
			c0.056,0.006,0.112,0,0.168,0l0.338-0.008c0.113-0.001,0.226-0.005,0.34,0.001c0.056,0.004,0.113,0.002,0.17,0.014l0.168,0.021
			l-0.169-0.007c-0.056-0.005-0.113-0.001-0.169,0c-0.111,0.001-0.224,0.014-0.336,0.022c-0.113,0.01-0.225,0.023-0.338,0.028
			c-0.057,0.003-0.114,0.008-0.171,0.007l-0.171-0.001c-0.058-0.003-0.117-0.011-0.175-0.017c-0.061-0.002-0.114-0.021-0.169-0.034
			l-0.082-0.02l-0.021-0.005l-0.024-0.01l-0.043-0.017c-0.058-0.026-0.107-0.066-0.145-0.082c-0.039-0.015-0.082-0.011-0.142-0.005
			c-0.036,0.009-0.085,0.023-0.126,0.058c-0.044,0.029-0.088,0.067-0.144,0.098c-0.053,0.034-0.121,0.052-0.188,0.059l-0.057,0.004
			l-0.004-0.055l-0.005-0.064c0.002-0.021,0.004-0.043,0.007-0.065c0.009-0.039,0.021-0.079,0.038-0.114
			c0.032-0.072,0.073-0.135,0.106-0.193l0.063,0.093l-0.129,0.03c-0.043,0.014-0.087,0.029-0.13,0.043
			c-0.086,0.034-0.177,0.065-0.272,0.095l-0.094,0.029l0.014-0.099c0.038-0.271,0.072-0.539,0.102-0.81l0.037-0.405l0.027-0.404
			l0.009-0.407l-0.014-0.405l-0.039-0.406L15.747,32.444z"/>
		<path clip-path="url(#SVGID_6_)" fill="#131B43" d="M26.864,33.79c0,0,0.009,0.011,0.022,0.033
			c0.006,0.01,0.015,0.023,0.023,0.038c0.005,0.016,0.022,0.026,0.033,0.042c0.012,0.014,0.024,0.029,0.038,0.045
			c0.016,0.015,0.033,0.032,0.048,0.051c0.015,0.018,0.036,0.033,0.053,0.051c0.018,0.02,0.035,0.038,0.055,0.055
			c0.037,0.038,0.075,0.075,0.11,0.11c0.035,0.036,0.068,0.071,0.095,0.102c0.055,0.062,0.086,0.111,0.086,0.111
			s-0.057-0.015-0.132-0.052c-0.038-0.02-0.081-0.043-0.123-0.073c-0.021-0.016-0.045-0.029-0.064-0.048
			c-0.021-0.019-0.042-0.037-0.063-0.056c-0.02-0.02-0.038-0.043-0.057-0.064c-0.019-0.021-0.035-0.041-0.049-0.065
			c-0.015-0.022-0.028-0.046-0.04-0.068c-0.013-0.022-0.019-0.049-0.026-0.069c-0.006-0.021-0.015-0.042-0.013-0.058
			c-0.001-0.017,0-0.033,0-0.045C26.862,33.805,26.864,33.79,26.864,33.79"/>
		<path clip-path="url(#SVGID_6_)" fill="#131B43" d="M26.822,33.835c0,0-0.009,0.059-0.045,0.136
			c-0.037,0.078-0.097,0.172-0.163,0.258c-0.033,0.043-0.066,0.086-0.097,0.124c-0.015,0.021-0.032,0.037-0.045,0.057
			c-0.014,0.02-0.027,0.035-0.041,0.051c-0.027,0.031-0.044,0.06-0.062,0.079c-0.016,0.018-0.026,0.03-0.026,0.03
			s0-0.016,0.002-0.041c0.003-0.024,0.005-0.062,0.02-0.102c0.013-0.042,0.03-0.092,0.057-0.136c0.013-0.023,0.024-0.05,0.042-0.072
			c0.016-0.022,0.032-0.046,0.048-0.067c0.068-0.09,0.145-0.168,0.204-0.224c0.031-0.026,0.057-0.053,0.076-0.068
			C26.81,33.844,26.822,33.835,26.822,33.835"/>
		<path clip-path="url(#SVGID_6_)" fill="#131B43" d="M26.828,34.031c0,0,0.002,0.016,0.006,0.044
			c0.004,0.027,0.002,0.067,0.009,0.113c0.002,0.022,0.006,0.048,0.007,0.072c0.001,0.025,0.009,0.051,0.012,0.079
			c0.006,0.055,0.02,0.112,0.031,0.169c0.014,0.058,0.027,0.115,0.043,0.169c0.013,0.056,0.03,0.106,0.04,0.151
			c0.024,0.09,0.033,0.155,0.033,0.155s-0.012-0.012-0.03-0.031c-0.019-0.022-0.045-0.054-0.071-0.094
			c-0.025-0.04-0.056-0.087-0.079-0.143c-0.011-0.027-0.028-0.056-0.035-0.086c-0.008-0.03-0.018-0.062-0.027-0.093
			c-0.005-0.034-0.01-0.065-0.015-0.098c-0.007-0.031-0.003-0.063-0.004-0.094c-0.002-0.061,0.011-0.12,0.021-0.167
			c0.01-0.048,0.029-0.083,0.04-0.108C26.82,34.045,26.828,34.031,26.828,34.031"/>
		<path clip-path="url(#SVGID_6_)" fill="#131B43" d="M27.415,33.97c0,0,0.039-0.017,0.107-0.041
			c0.036-0.011,0.073-0.034,0.117-0.059c0.042-0.021,0.09-0.051,0.144-0.085c0.053-0.032,0.11-0.067,0.171-0.104
			c0.067-0.039,0.131-0.071,0.202-0.106c0.07-0.036,0.141-0.074,0.214-0.108c0.074-0.036,0.151-0.069,0.228-0.104
			c0.076-0.031,0.154-0.064,0.229-0.097c0.075-0.035,0.153-0.057,0.227-0.084c0.074-0.026,0.146-0.05,0.214-0.074
			c0.068-0.022,0.133-0.042,0.194-0.057c0.121-0.031,0.224-0.051,0.295-0.069c0.071-0.015,0.112-0.022,0.112-0.022
			s-0.039,0.019-0.105,0.048c-0.067,0.027-0.163,0.07-0.278,0.116c-0.117,0.041-0.247,0.107-0.391,0.165
			c-0.144,0.058-0.294,0.128-0.445,0.194c-0.076,0.033-0.153,0.063-0.227,0.099c-0.074,0.034-0.149,0.065-0.22,0.096
			c-0.07,0.033-0.139,0.062-0.204,0.089c-0.063,0.033-0.123,0.063-0.182,0.088c-0.057,0.027-0.11,0.049-0.161,0.063
			c-0.05,0.017-0.091,0.034-0.128,0.036C27.456,33.964,27.415,33.97,27.415,33.97"/>
	</g>
	<text transform="matrix(1 0 0 1 36.918 21.0186)"><tspan x="0" y="0" fill="#293578" font-family="'Gotham-Bold'" font-size="2.9659">P</tspan><tspan x="1.966" y="0" fill="#293578" font-family="'Gotham-Bold'" font-size="2.9659">e</tspan><tspan x="3.785" y="0" fill="#293578" font-family="'Gotham-Bold'" font-size="2.9659">t</tspan><tspan x="4.971" y="0" fill="#293578" font-family="'Gotham-Bold'" font-size="2.9659">er Smith</tspan></text>
	<path fill="#293578" d="M40.398,25.192h-2.123v-1.349h2.123V25.192z M39.058,23.741v-0.087c0-0.02,0.016-0.035,0.035-0.035h0.488
		c0.02,0,0.035,0.016,0.035,0.035v0.087h0.155v-0.157c0-0.061-0.048-0.109-0.109-0.109h-0.648c-0.06,0-0.109,0.049-0.109,0.109
		v0.157H39.058z"/>
	<text transform="matrix(1 0 0 1 41.6768 32.0313)" fill="#293678" font-family="'Gotham-Bold'" font-size="2.0846">Lieu de naissance - </text>
	<text transform="matrix(1 0 0 1 62.4639 32.0313)"><tspan x="0" y="0" fill="#D24B49" font-family="'Gotham-Bold'" font-size="2.0846">Ott</tspan><tspan x="3.502" y="0" fill="#D24B49" font-family="'Gotham-Bold'" font-size="2.0846">aw</tspan><tspan x="6.447" y="0" fill="#D24B49" font-family="'Gotham-Bold'" font-size="2.0846">a, Ontario</tspan></text>
	<text transform="matrix(1 0 0 1 41.4287 25.2129)" fill="#293578" font-family="'Gotham-Bold'" font-size="2.0846">Poste actuel - </text>
	<text transform="matrix(1 0 0 1 56.7656 25.2129)" fill="#D24B49" font-family="'Gotham-Bold'" font-size="2.0846">Directeur général, </text>
	<text transform="matrix(1 0 0 1 41.4287 27.7139)" fill="#D24B49" font-family="'Gotham-Bold'" font-size="2.0846">ministère du Commerce</text>
	<path fill="#293578" d="M40.361,31.131v1.042h-0.745v-0.565h-0.561v0.565h-0.744v-1.042h-0.266l1.291-1.289l1.29,1.289H40.361z
		 M40.201,29.958h-0.299v0.24l0.299,0.301V29.958z"/>
	<path fill="#FFFFFF" d="M89.741,41.998H9.904c-0.828,0-1.498,0.671-1.498,1.499v15.262v0.08v1.785c0,0.828,0.67,1.499,1.498,1.499
		h79.837c0.829,0,1.499-0.671,1.499-1.499v-1.785v-0.08V43.497C91.24,42.669,90.57,41.998,89.741,41.998"/>
	<path fill="#AFE0E9" d="M8.354,37.745c0,0.829,0.671,1.499,1.499,1.499h79.836c0.828,0,1.5-0.67,1.5-1.499v-1.864H8.354V37.745z"/>
	<path fill="#AFE0E9" d="M32.813,43.497c0-0.828,0-1.499,0-1.499H9.904c-0.828,0-1.498,0.671-1.498,1.499v2.632h24.406V43.497z"/>
	<text transform="matrix(1 0 0 1 10.377 44.9805)" fill="#FFFFFF" font-family="'Gotham-Bold'" font-size="2.0846">Recommandations</text>
	<text transform="matrix(1 0 0 1 28.8008 56.6924)" fill="#D24B49" font-family="'Gotham-Bold'" font-size="2.0846">Amanda Thompson, adjointe exécutive, </text>
	<text transform="matrix(1 0 0 1 28.8008 59.1924)" fill="#D24B49" font-family="'Gotham-Bold'" font-size="2.0846">ministère du Commerce</text>
	<text transform="matrix(1 0 0 1 18.9502 49.7002)" fill="#1E1E4E" font-family="'Gotham-Bold'" font-size="2.0846">« Je travaille actuellement avec Peter au ministère du Commerce, </text>
	<text transform="matrix(1 0 0 1 18.9502 52.2002)" fill="#1E1E4E" font-family="'Gotham-Bold'" font-size="2.0846">et je suis régulièrement impressionné par sa capacité...</text>
	<path fill="#D6EFF6" d="M25.656,53.871h-6.502c-0.178,0-0.324,0.146-0.324,0.327v5.924c0,0.18,0.146,0.328,0.324,0.328h6.502
		c0.179,0,0.324-0.148,0.324-0.328v-5.924C25.979,54.017,25.835,53.871,25.656,53.871"/>
	<rect x="19.262" y="54.396" fill="#AFE0E9" width="6.291" height="5.511"/>
	<g>
		<defs>
			<rect id="SVGID_7_" x="19.875" y="54.632" width="5.277" height="5.278"/>
		</defs>
		<clipPath id="SVGID_8_">
			<use xlink:href="#SVGID_7_"  overflow="visible"/>
		</clipPath>
		<path clip-path="url(#SVGID_8_)" fill="#273F8F" d="M24.617,59.183c-0.146-0.132-1.094-0.208-1.094-0.208
			s-2.142-0.188-3.039,0.479c-0.896,0.665,0.437,3.768,0.408,4.35c-0.019,0.114-0.207,0.604-0.366,1.156
			c-0.077,0.265-0.087,0.535-0.09,0.736l3.167-0.121c-0.014-0.063-0.028-0.122-0.042-0.18c0.019,0.057,0.036,0.116,0.053,0.177
			l0.889,0.006c-0.188-1.547-0.456-1.768-0.557-2.256c-0.098-0.473-0.156-0.723,0.188-1.491c0.176-0.393,0.332-1.073,0.217-1.218
			c-0.001-0.001-0.001-0.001-0.002-0.002l0.002,0.002c0.008,0.01,0.017,0.02,0.025,0.028c0.518,0.364,1.124,0.763,1.066,0.831
			c-0.206,0.251-0.685,0.373-0.917,0.477c0.07,0.251,0.592,0.826,0.637,0.831c0,0,1.33-0.907,1.277-1.298
			C26.401,61.204,24.763,59.317,24.617,59.183 M23.983,60.287c0.091,0.032,0.214,0.152,0.354,0.312l0.006,0.008
			C24.212,60.459,24.073,60.322,23.983,60.287"/>
		<path clip-path="url(#SVGID_8_)" fill="#1371AC" d="M23.793,64.948c0.028-0.148,0.166-0.246,0.307-0.219
			c0.142,0.027,0.233,0.169,0.205,0.316c-0.027,0.147-0.165,0.245-0.307,0.218C23.857,65.237,23.765,65.095,23.793,64.948
			 M23.86,64.962c-0.021,0.108,0.046,0.215,0.151,0.236c0.104,0.021,0.207-0.055,0.228-0.165c0.021-0.11-0.046-0.218-0.151-0.236
			C23.983,64.777,23.881,64.85,23.86,64.962"/>
		<path clip-path="url(#SVGID_8_)" fill="#A8DEEA" d="M24.232,64.825c0,0,0.086,0.107,0.06,0.2
			C24.292,65.025,24.244,64.848,24.232,64.825"/>
		<path clip-path="url(#SVGID_8_)" fill="#232153" d="M23.758,62.608c0,0,0.492,1.557,0.43,2.255c0,0-0.101-0.091-0.258-0.012
			C23.93,64.852,23.717,63.255,23.758,62.608"/>
		<path clip-path="url(#SVGID_8_)" fill="#26275F" d="M23.842,59.13c0,0,0.139,0.497,0.125,0.716
			c-0.015,0.22-0.188,0.204-0.314,0.219c-0.125,0.018,0.42,0.159,0.481,0.236c0.061,0.076-0.493,0.901-0.822,1.4
			c-0.436,0.662-0.426,0.482-0.494,0.809c0,0,0.027-0.054,0.519-0.763c0.492-0.71,0.973-1.361,0.888-1.484
			c-0.037-0.055-0.443-0.169-0.443-0.169s0.253,0.002,0.246-0.203C24.02,59.739,23.96,59.396,23.842,59.13"/>
		<path clip-path="url(#SVGID_8_)" fill="#31C4F3" d="M24.348,60.611c0,0.001,0.001,0.001,0.002,0.002L24.348,60.611z"/>
		<path clip-path="url(#SVGID_8_)" fill="#273F8F" d="M20.982,62.46c-0.196-0.538-0.352-2.503-0.303-2.581l1.175-0.872
			c0,0-1.353-0.172-1.717,0.124c-0.365,0.298-0.433,2.891,0.058,3.793c0.128,0.237,0.227,0.618,0.483,0.941
			c0,0,0.679-0.012,0.982-0.409C21.601,63.36,21.054,62.658,20.982,62.46"/>
		<path clip-path="url(#SVGID_8_)" fill="#26275F" d="M21.098,59.13c0,0-0.139,0.497-0.125,0.716
			c0.015,0.22,0.188,0.204,0.315,0.219c0.126,0.018-0.42,0.159-0.481,0.236c-0.061,0.076,0.493,0.901,0.823,1.4
			c0.435,0.662,0.41,0.508,0.479,0.832c0,0-0.012-0.077-0.503-0.786c-0.492-0.71-0.975-1.361-0.889-1.484
			c0.038-0.055,0.444-0.169,0.444-0.169s-0.253,0.002-0.245-0.203C20.92,59.739,20.979,59.396,21.098,59.13"/>
		<path clip-path="url(#SVGID_8_)" fill="#1F80B8" d="M21.913,57.891c0,0,0.309,0.894-0.303,1.422
			c-0.531,0.459,0.536,1.411,0.877,1.421c0.479,0.016,1.067-1.024,0.957-1.285c-0.063-0.148-0.525-0.409-0.65-1.607L21.913,57.891z"
			/>
		<path clip-path="url(#SVGID_8_)" fill="#1371AC" d="M21.578,59.497c0,0,0.062,1.726,0.515,0.939
			c0.338-0.584-0.082-2.526-0.082-2.526s0.148,0.311,0.021,0.267c-0.027-0.01-0.023-0.027-0.023-0.027s0.006-0.068-0.065-0.244
			l-0.072-0.178c0,0,0.116,0.439,0.1,0.62c-0.016,0.182,0,0.078,0,0.078s-0.028-0.28-0.068-0.374l-0.039-0.093
			c0,0-0.044,0.565-0.163,1.052c-0.119,0.483-0.204,0.578-0.389,0.767C21.126,59.968,21.578,59.497,21.578,59.497"/>
		<path clip-path="url(#SVGID_8_)" fill="#232153" d="M22.611,61.86c-0.01-0.148-0.022-0.269-0.034-0.326
			c-0.058-0.27-0.408-0.359-0.405-0.565c0.003-0.21,0.199-0.682,0.118-0.806c-0.08-0.128-0.591-0.968-0.591-0.968
			s-0.141,0.129-0.22,0.295c-0.025,0.112-0.096,0.389-0.089,0.774c0.002,0.056,0.088-0.031,0.089,0.027
			c0.029,1.292,1.092,1.277,1.046,3.017l0.011,0.75l0.093-0.835C22.628,63.224,22.563,62.398,22.611,61.86"/>
		<path clip-path="url(#SVGID_8_)" fill="#232153" d="M22.342,61.86c0.01-0.148,0.022-0.269,0.034-0.326
			c0.058-0.27,0.408-0.359,0.405-0.565c-0.004-0.21-0.199-0.682-0.118-0.806c0.081-0.128,0.592-0.968,0.592-0.968
			s0.141,0.129,0.221,0.295c0.025,0.114,0.083,0.42,0.074,0.82c-0.001,0.047-0.071-0.017-0.073,0.035
			c-0.03,1.29-0.925,0.583-0.874,2.396l-0.019,0.225l-0.122-0.392C22.462,62.574,22.388,62.398,22.342,61.86"/>
		<path clip-path="url(#SVGID_8_)" fill="#1F80B8" d="M22.341,55.439c0,0,1.119-0.201,1.219,0.691
			c0.101,0.893-0.276,1.496-0.565,1.849c-0.289,0.351-0.578,0.453-0.792,0.365c-0.213-0.088-0.49-0.353-0.604-0.643
			c-0.113-0.289-0.314-1.006-0.239-1.609C21.436,55.49,22.341,55.439,22.341,55.439"/>
		<path clip-path="url(#SVGID_8_)" fill="#1F80B8" d="M25.278,62.619c0,0,0.032,0.002-0.579,0.121
			c-0.417,0.083-1.176,0.436-1.394,0.516c-0.291,0.107-0.749-0.05,0.445-0.65c0.567-0.285,1.654-1.034,1.372-0.738
			C25.052,61.942,25.646,62.39,25.278,62.619"/>
		<path clip-path="url(#SVGID_8_)" fill="#1F80B8" d="M23.44,62.827c-0.024-0.007-0.242-0.144-0.426-0.301
			c-0.149-0.126-0.203-0.056-0.203-0.056l-0.114,0.141c0,0-0.263,0.073-0.296,0.151c-0.021,0.051-0.11,0.067-0.176,0.205
			c-0.083,0.169,0.168,0.269,0.211,0.351c0.016,0.032,0.09-0.023,0.134,0.007c0.043,0.032-0.025,0.102-0.001,0.135
			s0.253-0.067,0.324-0.125c0.071-0.057,0.279,0.055,0.424-0.041C23.461,63.199,23.44,62.827,23.44,62.827"/>
		<path clip-path="url(#SVGID_8_)" fill="#0B66A3" d="M23.327,63.02c0,0-0.147,0.104-0.276,0.029
			c-0.129-0.077-0.173-0.401-0.173-0.401l-0.062,0.05l0.066,0.052c0,0,0.018,0.192,0.118,0.307
			C23.101,63.169,23.209,63.095,23.327,63.02"/>
		<path clip-path="url(#SVGID_8_)" fill="#0B66A3" d="M22.697,62.611c0,0-0.06,0.084-0.055,0.119
			c0.004,0.034,0.081,0.091,0.116,0.103c0.036,0.014,0.14,0.031,0.14,0.031s-0.147,0.038-0.175,0.024
			c-0.027-0.013-0.129-0.137-0.129-0.137l-0.005-0.099L22.697,62.611z"/>
		<path clip-path="url(#SVGID_8_)" fill="#0B66A3" d="M22.4,62.763c0,0,0.074,0.15,0.126,0.245c0.032,0.056,0.262,0.026,0.269,0.051
			c0.009,0.038-0.292,0.007-0.284,0.021c0.022,0.04-0.176-0.239-0.176-0.239L22.4,62.763z"/>
		<path clip-path="url(#SVGID_8_)" fill="#0B66A3" d="M22.25,62.939c0,0,0.138,0.195,0.181,0.25s0.31-0.002,0.31-0.002
			s-0.323,0.068-0.342,0.044s-0.174-0.264-0.174-0.264L22.25,62.939z"/>
		<path clip-path="url(#SVGID_8_)" fill="#0B66A3" d="M22.533,63.312c0,0,0.145-0.043,0.177-0.082c0.032-0.042-0.098,0.1-0.122,0.15
			C22.563,63.432,22.604,63.351,22.533,63.312"/>
		<path clip-path="url(#SVGID_8_)" fill="#0B66A3" d="M22.711,63.251c0,0,0.148-0.075,0.196-0.065c0.048,0.01,0.05-0.079,0.075-0.1
			c0.025-0.02-0.072,0.001-0.094,0.043C22.865,63.17,22.751,63.189,22.711,63.251"/>
		<path clip-path="url(#SVGID_8_)" fill="#26275F" d="M24.481,65.42c0,0,0.31,0.677,0.3,2.261c-0.011,1.679-0.179,2.282-0.179,2.282
			l-0.069,0.439l-0.179,0.947c0,0-1.139-0.072-2.077-0.111c-0.938-0.036-1.239,0.039-1.239,0.039s0.075-1.839-0.074-2.627
			c-0.15-0.789-0.51-2.176-0.548-2.478c-0.037-0.3,0.017-0.485,0.017-0.485s0.38-0.151,1.731-0.151S24.481,65.42,24.481,65.42"/>
		<path clip-path="url(#SVGID_8_)" fill="#232153" d="M22.644,65.635c0,0,0.058,4.759,0.217,5.236
			c0.156,0.468,0.094,0.401,0.094,0.401l1.274,0.064c0,0,0.326-2.812,0.403-3.573c0.078-0.763-0.279-2.006-0.279-2.006
			L22.644,65.635z"/>
		<path clip-path="url(#SVGID_8_)" fill="#273F8F" d="M24.444,65.724c0,0,0.061,0.028,0.081,0.124c0.08,0.388,0.23,1.43,0.188,1.798
			c-0.054,0.459-1.485,1.843-2.273,1.728c-0.456-0.068-0.874-0.336-0.956-0.54c-0.122-0.299,0.223-2.205,0.439-2.431
			C22.138,66.179,24.084,66.42,24.444,65.724"/>
		<path clip-path="url(#SVGID_8_)" fill="#26275F" d="M24.444,65.724c0,0-0.292,1.053-1.755,1.052c-0.192,0-0.363,0.637-0.389,0.778
			c-0.025,0.142-0.193,1.562,0.12,1.689c0.313,0.131,0.792-0.09,0.909-0.172c0,0-0.554,0.397-1.029,0.27
			c-0.474-0.131-0.775-0.405-0.79-0.567c-0.015-0.165,0.227-2.154,0.476-2.315c0.249-0.16,0.343-0.114,0.343-0.114L24.444,65.724z"
			/>
		<path clip-path="url(#SVGID_8_)" fill="#281711" d="M24.354,65.248c0,0,0.168-0.211-0.408-0.169
			c-0.502,0.034-0.494,0.466-1.656,0.578c0,0,0.135,0.55,0.356,0.62C22.868,66.346,24.14,65.939,24.354,65.248"/>
		<path clip-path="url(#SVGID_8_)" fill="#273F8F" d="M24.371,65.153c0,0-0.52,0.609-0.919,0.713
			c-0.398,0.105-1.162-0.209-1.162-0.209l-0.303,0.706l0.438,0.167c0,0,0.602,0.278,1.265-0.035
			c0.448-0.212,0.754-0.771,0.754-0.771S24.438,65.43,24.371,65.153"/>
		<path clip-path="url(#SVGID_8_)" fill="#26275F" d="M21.112,62.23c0,0-0.194-0.747-0.196-1.003
			c-0.001-0.232-0.115,1.154,0.569,1.992C21.485,63.22,21.178,62.491,21.112,62.23"/>
		<path clip-path="url(#SVGID_8_)" fill="#243066" d="M25.418,61.414c0,0,0.007,0.003,0.019,0.01c0.01,0.008,0.029,0.013,0.044,0.03
			c0.017,0.017,0.038,0.036,0.053,0.061c0.018,0.022,0.03,0.051,0.044,0.077c0.009,0.03,0.021,0.06,0.025,0.088
			c0.007,0.027,0.007,0.055,0.008,0.076c0.001,0.046-0.007,0.075-0.007,0.075s-0.007-0.029-0.019-0.072
			c-0.005-0.02-0.014-0.044-0.021-0.07c-0.006-0.025-0.019-0.052-0.029-0.078c-0.012-0.026-0.021-0.053-0.036-0.075
			c-0.012-0.023-0.024-0.044-0.037-0.063c-0.011-0.019-0.025-0.032-0.032-0.041L25.418,61.414z"/>
		<path clip-path="url(#SVGID_8_)" fill="#43A5DC" d="M23.266,56.301c0,0,0.121,0.524,0.081,0.781l-0.04,0.26
			c0,0,0.088-0.444,0.096-0.558c0.009-0.113,0.024,0.29,0,0.42l-0.024,0.13c0,0,0.096-0.42,0.08-0.686
			c-0.016-0.267-0.088-0.558-0.088-0.558l-0.032,0.179l-0.082-0.082L23.266,56.301z"/>
		<path clip-path="url(#SVGID_8_)" fill="#0B66A3" d="M22.664,58.324c0,0-0.093,0.092-0.255,0.09c-0.163,0-0.279-0.105-0.279-0.105
			s0.073,0.141,0.275,0.146c0.202,0.006,0.288-0.157,0.288-0.157"/>
		<path clip-path="url(#SVGID_8_)" fill="#243066" d="M25.246,61.822c0,0,0.007,0.003,0.021,0.004
			c0.012,0.006,0.031,0.008,0.05,0.021c0.021,0.011,0.045,0.023,0.065,0.045c0.022,0.018,0.042,0.042,0.062,0.064
			c0.016,0.026,0.033,0.051,0.044,0.078c0.014,0.025,0.02,0.052,0.026,0.073c0.011,0.044,0.011,0.075,0.011,0.075
			s-0.014-0.027-0.035-0.066c-0.01-0.019-0.023-0.04-0.038-0.063c-0.013-0.024-0.03-0.048-0.046-0.069
			c-0.018-0.022-0.033-0.046-0.053-0.064c-0.017-0.021-0.034-0.037-0.05-0.052c-0.015-0.015-0.032-0.026-0.041-0.034
			C25.252,61.826,25.246,61.822,25.246,61.822"/>
		<path clip-path="url(#SVGID_8_)" fill="#1F80B8" d="M23.071,64.706c0.018,0.019,0.485,0.352,0.708,0.445
			c0.18,0.078,0.139,0.158,0.139,0.158l-0.147,0.161c0,0,0.095,0.169-0.023,0.256c-0.043,0.032-0.093,0.093-0.248,0.139
			c-0.181,0.055-0.305,0.04-0.398,0.033c-0.044-0.002-0.127-0.012-0.175-0.036c-0.046-0.024,0.01-0.088-0.031-0.096
			c-0.042-0.005-0.053-0.255-0.033-0.344c0.019-0.089-0.174-0.226-0.153-0.397C22.729,64.852,23.071,64.706,23.071,64.706"/>
		<path clip-path="url(#SVGID_8_)" fill="#1F80B8" d="M21.493,63.261c0,0-0.035,0.061,0.386,0.52
			c0.287,0.313,1.001,0.759,1.166,0.922c0.399,0.395,0.211,0.869-0.922,0.163c-0.54-0.337-0.882-0.749-1.209-0.994
			C20.585,63.628,21.107,63.064,21.493,63.261"/>
		<path clip-path="url(#SVGID_8_)" fill="#243066" d="M20.676,63.83c0,0,0.003-0.019,0.008-0.05
			c0.003-0.016,0.004-0.037,0.013-0.059c0.007-0.021,0.015-0.045,0.024-0.072c0.013-0.024,0.027-0.053,0.042-0.081
			c0.018-0.026,0.035-0.057,0.058-0.084c0.024-0.026,0.047-0.056,0.076-0.079c0.028-0.026,0.057-0.05,0.089-0.07
			c0.03-0.021,0.066-0.039,0.098-0.056c0.035-0.014,0.068-0.03,0.103-0.04c0.033-0.012,0.067-0.016,0.1-0.021
			c0.032,0,0.063-0.006,0.092,0c0.028,0,0.054,0.007,0.076,0.014c0.023,0.005,0.04,0.02,0.054,0.026
			c0.026,0.021,0.038,0.036,0.038,0.036s-0.016-0.011-0.042-0.028c-0.016-0.004-0.032-0.016-0.054-0.018
			c-0.022-0.004-0.046-0.007-0.073-0.006c-0.027-0.002-0.056,0.006-0.086,0.01c-0.03,0.008-0.062,0.015-0.094,0.026
			c-0.032,0.01-0.063,0.025-0.096,0.04c-0.03,0.017-0.063,0.033-0.091,0.055c-0.03,0.021-0.059,0.04-0.085,0.063
			c-0.029,0.022-0.05,0.05-0.074,0.075c-0.021,0.025-0.042,0.051-0.061,0.075c-0.017,0.024-0.032,0.05-0.046,0.073
			c-0.011,0.024-0.022,0.048-0.032,0.066c-0.011,0.021-0.014,0.04-0.02,0.055C20.682,63.813,20.676,63.83,20.676,63.83"/>
		<path clip-path="url(#SVGID_8_)" fill="#1371AC" d="M23,55.804c0,0-0.891-0.522-1.583,0.445c-0.514,0.719,0.297,2.178,0.297,2.178
			s-0.042-0.146-0.074-0.303l-0.033-0.155c0,0,0.076,0.264,0.228,0.456l0.152,0.192c0,0-0.266-0.489-0.265-0.699
			c0.003-0.209-0.012-0.089-0.012-0.089s0.09,0.319,0.173,0.42l0.084,0.101c0,0-0.25-0.696-0.108-1.271s0.525-0.654,0.828-0.896
			C22.989,55.938,23,55.804,23,55.804"/>
		<path clip-path="url(#SVGID_8_)" fill="#273F8F" d="M22.92,60.096c0,0,0.194-0.18,0.336,0c0.143,0.183,0.312,0.338,0.312,0.338
			s-0.286-0.323-0.415-0.323C23.023,60.11,22.92,60.096,22.92,60.096"/>
		<path clip-path="url(#SVGID_8_)" fill="#273F8F" d="M21.971,60.096c0,0-0.195-0.18-0.337,0c-0.142,0.183-0.311,0.338-0.311,0.338
			s0.286-0.323,0.415-0.323C21.868,60.11,21.971,60.096,21.971,60.096"/>
		<path clip-path="url(#SVGID_8_)" fill="#273F8F" d="M23.049,60.78c0,0-0.209,0.435-0.354,0.563
			c-0.145,0.129-0.161,0.788-0.161,0.788s0.145-0.707,0.305-0.82C23.001,61.198,23.049,60.78,23.049,60.78"/>
		<path clip-path="url(#SVGID_8_)" fill="#273F8F" d="M21.907,60.638c0,0-0.033,0.386,0.096,0.467
			c0.128,0.079,0.342,0.324,0.342,0.324s-0.391-0.213-0.456-0.342C21.827,60.958,21.907,60.638,21.907,60.638"/>
		<path clip-path="url(#SVGID_8_)" fill="#26275F" d="M23.148,54.959c-0.49-0.365-1.069-0.299-1.358-0.232
			c-0.289,0.066-0.823,0.612-1.023,1.893s-0.312,1.836-0.279,2.036c0.034,0.2,0.234,0.412,0.223,0.579
			c-0.012,0.167-0.312,0.479-0.367,0.769c-0.057,0.289,0.267,0.355,0.3,0.489c0.034,0.133,0.111,0.368-0.145,0.545
			c-0.256,0.179-0.223,0.146-0.134,0.369c0.089,0.222,0.245,0.266,0.356,0.355c0.111,0.09-0.078-0.223-0.078-0.379
			s0.089-0.122,0.223-0.233c0.133-0.112,0.501-0.391,0.345-0.657c-0.156-0.267-0.078-0.391,0.145-0.522
			c0.223-0.135,0.236-0.314,0.345-0.647c0.099-0.297,0.184-0.307,0.262-0.517c0.078-0.214,0.02-0.594,0.02-0.594
			s-0.55-0.552-0.566-1.286c-0.006-0.342,0.107-0.685,0.456-0.842c-0.006,0.007,0,0,0,0s0.212,0.455,0.473,0.493
			c0.261,0.039,0.718,0.092,0.822,0.313c0.104,0.222,0.117,0.457,0.117,0.457s0.014-0.05,0.032-0.125
			c-0.008,0.135-0.018,0.273-0.067,0.387c-0.079,0.178-0.417,0.498-0.416,0.558c0.009,0.363,0.064,0.363,0.167,0.582
			c0,0,0.626-0.928,0.671-1.764C23.716,56.151,23.638,55.327,23.148,54.959"/>
		<path clip-path="url(#SVGID_8_)" fill="#283678" d="M21.492,55.353c0,0-0.451,0.625-0.587,1.526
			c-0.137,0.897-0.176,1.349-0.098,1.818c0.078,0.47-0.039,0.723-0.039,0.723s0.098-1.818,0.293-2.582
			C21.257,56.076,21.492,55.353,21.492,55.353"/>
		<path clip-path="url(#SVGID_8_)" fill="#283678" d="M21.237,57.131c0,0,0.255,0.529,0.313,0.901
			c0.059,0.371-0.274,0.487-0.215,1.017l0.058,0.527c0,0,0.176-1.23,0.293-1.389C21.804,58.032,21.237,57.131,21.237,57.131"/>
		<path clip-path="url(#SVGID_8_)" fill="#283678" d="M21.136,58.764c0,0-0.196,0.345-0.156,0.646
			c0.039,0.303,0.117,0.54-0.118,0.619c-0.235,0.08,0,0.356-0.059,0.54l-0.058,0.185c0,0,0.039-0.408,0.195-0.605
			c0.157-0.198,0.098-0.685,0.157-0.937C21.155,58.962,21.136,58.764,21.136,58.764"/>
		<path clip-path="url(#SVGID_8_)" fill="#283678" d="M22.098,55.724c0,0-0.138,0.333,0.333,0.605
			c0.469,0.275,0.875,0.424,0.907,0.663l0.032,0.238c0,0,0.039-0.549-0.47-0.783C22.392,56.213,22.098,55.724,22.098,55.724"/>
		<path clip-path="url(#SVGID_8_)" fill="#283678" d="M22.665,55.334c0,0,0.705,0.293,0.803,0.897
			c0.098,0.606-0.059,1.408-0.059,1.408s0.098-1.369-0.156-1.642C22.998,55.724,22.665,55.334,22.665,55.334"/>
		<path clip-path="url(#SVGID_8_)" fill="#283678" d="M22.469,55.665c0,0,0.078,0.313,0.313,0.471
			c0.234,0.155,0.372,0.252,0.372,0.252L22.469,55.665z"/>
		<path clip-path="url(#SVGID_8_)" fill="#283678" d="M21.681,55.701c-0.043,0.046-0.277,0.294-0.398,0.715
			c-0.122,0.42-0.108,1.041-0.108,1.041s0.112-0.942,0.246-1.188C21.556,56.025,21.681,55.701,21.681,55.701"/>
		<path clip-path="url(#SVGID_8_)" fill="#283678" d="M22.518,54.901c0,0,0.616,0.021,0.772,0.441s0.235,0.733,0.235,0.733
			s-0.255-0.724-0.451-0.881C22.88,55.038,22.518,54.901,22.518,54.901"/>
		<path clip-path="url(#SVGID_8_)" fill="#26275F" d="M23.149,66.729c0,0,0.118,0.443,0.125,0.813
			c0.008,0.369,0.067-0.688,0.061-0.733c-0.007-0.043,0.198,0.192,0.211,0.281c0.013,0.09,0.028-0.29,0.024-0.355
			c-0.004-0.066,0.112,0.075,0.112,0.075s0.01-0.204-0.009-0.239c-0.018-0.034,0.372-0.246,0.372-0.246s0.117,0.36,0.131,0.544
			c0.014,0.187,0.055-0.342,0.037-0.483c-0.019-0.144,0.128,0.132,0.161,0.244c0.033,0.111-0.024-0.6-0.038-0.686
			C24.335,65.943,24.152,66.446,23.149,66.729"/>
		<path clip-path="url(#SVGID_8_)" fill="#283678" d="M21.672,55.208c0,0-0.354,0.404-0.441,0.651l-0.086,0.246
			c0,0,0.132-0.433,0.178-0.535c0.046-0.104-0.159,0.242-0.199,0.369l-0.04,0.124c0,0,0.113-0.414,0.253-0.641
			c0.141-0.228,0.341-0.448,0.341-0.448l-0.056,0.171l0.109-0.032L21.672,55.208z"/>
		<path clip-path="url(#SVGID_8_)" fill="#283678" d="M21.959,55.031c0,0,0.146-0.021,0.366,0.088c0.22,0.11,0.322,0.17,0.322,0.17
			l-0.195-0.166c0,0,0.163,0.033,0.207,0.097c0.044,0.061-0.081-0.153-0.081-0.153l0.172,0.064c0,0-0.173-0.147-0.201-0.156
			c-0.028-0.008,0.118-0.028,0.118-0.028l-0.16-0.052c0,0-0.277-0.074-0.453-0.069c-0.176,0.004-0.272,0.1-0.272,0.1l0.118-0.027
			l-0.071,0.073l0.096-0.048l-0.063,0.098L21.959,55.031z"/>
		<path clip-path="url(#SVGID_8_)" fill="#0B66A3" d="M23.066,65.648c0,0,0.087-0.027,0.113-0.014
			c0.027,0.014,0.053,0.092,0.054,0.126c0.001,0.032-0.011,0.125-0.011,0.125s0.071-0.113,0.067-0.14s-0.077-0.146-0.077-0.146
			l-0.083-0.031L23.066,65.648z"/>
		<path clip-path="url(#SVGID_8_)" fill="#0B66A3" d="M23.379,65.876c0,0,0.038-0.143,0.058-0.235
			c0.011-0.055-0.158-0.169-0.147-0.189c0.015-0.03,0.196,0.164,0.199,0.15c0.008-0.039-0.021,0.262-0.021,0.262L23.379,65.876z"/>
		<path clip-path="url(#SVGID_8_)" fill="#0B66A3" d="M23.638,65.783c0,0-0.01-0.211-0.016-0.271
			c-0.007-0.062-0.232-0.145-0.232-0.145s0.273,0.102,0.275,0.128c0.002,0.028,0.005,0.279,0.005,0.279L23.638,65.783z"/>
		<path clip-path="url(#SVGID_8_)" fill="#0B66A3" d="M23.572,65.179c0,0,0.087,0.144,0.08,0.191
			c-0.007,0.05,0.083,0.044,0.104,0.068c0.021,0.021-0.005-0.072-0.049-0.092C23.664,65.325,23.637,65.212,23.572,65.179"/>
		<path clip-path="url(#SVGID_8_)" fill="#283678" d="M21.022,57.839c0,0-0.018,0.346,0.021,0.521
			c0.039,0.178,0.077,0.293,0.077,0.293s-0.034-0.171-0.017-0.375l0.017-0.203c0,0,0.005,0.31,0.039,0.448
			c0.033,0.14,0.058,0.243,0.058,0.243s-0.031-0.214-0.004-0.389c0.027-0.176,0.143-0.461,0.143-0.461s-0.176,0.208-0.182,0.241
			c-0.005,0.033-0.021-0.094-0.021-0.16s-0.083,0.056-0.088,0.16C21.06,58.262,21.022,57.839,21.022,57.839"/>
		<path clip-path="url(#SVGID_8_)" fill="#283678" d="M21.036,57.453l0.033,0.313c0,0,0.038-0.12,0.048-0.126
			c0.01-0.007,0.048,0.133,0.048,0.133l0.058-0.131v0.066c0,0,0.014-0.048,0.055-0.127c0.041-0.079,0.048-0.146,0.048-0.146
			l-0.089,0.079v-0.072l-0.071,0.134v-0.089l-0.054,0.082l-0.008-0.055l-0.027,0.055L21.036,57.453z"/>
		<path clip-path="url(#SVGID_8_)" fill="#273F8F" d="M22.29,65.657c0,0,1.031,0.479,1.609-0.049
			c0.577-0.527-0.477,0.643-0.477,0.643L22.29,65.657z"/>
		<path clip-path="url(#SVGID_8_)" fill="#283678" d="M22.788,55.66c0,0,0.338,0.36,0.418,0.571c0.08,0.211,0.145,0.463,0.145,0.463
			s-0.066-0.457-0.152-0.589C23.112,55.973,22.788,55.66,22.788,55.66"/>
		<path clip-path="url(#SVGID_8_)" fill="#283678" d="M21.278,56.111c0,0,0.214-0.444,0.382-0.594
			c0.169-0.152,0.38-0.304,0.38-0.304s-0.403,0.227-0.496,0.354C21.453,55.697,21.278,56.111,21.278,56.111"/>
		<path clip-path="url(#SVGID_8_)" fill="#283678" d="M22.084,55.452l0.276,0.15c0,0-0.076-0.1-0.076-0.111
			c0-0.012,0.137,0.036,0.137,0.036l-0.074-0.12l0.053,0.035c0,0-0.031-0.037-0.072-0.115s-0.093-0.123-0.093-0.123l0.014,0.118
			l-0.06-0.042l0.069,0.135l-0.073-0.05l0.036,0.091l-0.049-0.025l0.029,0.054L22.084,55.452z"/>
		<path clip-path="url(#SVGID_8_)" fill="#273F8F" d="M24.523,61.953c0,0,0.063,0.681,0.638,0.827l0.583-0.551l-0.333-0.543
			l-0.746,0.28"/>
		<path clip-path="url(#SVGID_8_)" fill="#0B66A3" d="M22.547,57.622c0,0-0.151,0.03-0.252,0.02
			c-0.088-0.009-0.046-0.578-0.046-0.578s-0.067,0.458-0.062,0.559c0.005,0.099,0.154,0.104,0.154,0.104L22.547,57.622z"/>
		<path clip-path="url(#SVGID_8_)" fill="#0B66A3" d="M23.028,56.874c0,0-0.084-0.04-0.145-0.068
			c-0.059-0.028-0.197-0.022-0.249-0.006c-0.051,0.016-0.138,0.126-0.138,0.126s0.081-0.159,0.146-0.188
			C22.709,56.707,22.93,56.751,23.028,56.874"/>
		<path clip-path="url(#SVGID_8_)" fill="#0B66A3" d="M21.621,56.89c0,0,0.085-0.058,0.144-0.087c0.06-0.03,0.195-0.028,0.246-0.016
			c0.05,0.015,0.131,0.139,0.131,0.139s-0.073-0.188-0.141-0.205C21.865,56.692,21.721,56.766,21.621,56.89"/>
		<path clip-path="url(#SVGID_8_)" fill="#243066" d="M25.299,62.458c0.051-0.104,0.123-0.197,0.205-0.279
			c0.083-0.082,0.177-0.152,0.264-0.227c0.044-0.037,0.086-0.074,0.124-0.116l0.113-0.131c0.077-0.087,0.153-0.173,0.221-0.265
			l0.024,0.036c-0.091,0.023-0.181,0.002-0.264-0.015l-0.051-0.012l0.044-0.028c0.008-0.006,0.019-0.02,0.028-0.034
			c0.01-0.016,0.022-0.032,0.042-0.046l0.005,0.039c-0.022-0.006-0.045-0.012-0.069-0.015c-0.025-0.003-0.051-0.007-0.076-0.013
			l-0.025-0.004l0.011-0.024c0.005-0.014-0.01-0.052-0.027-0.077c-0.017-0.028-0.037-0.055-0.058-0.081
			c-0.042-0.054-0.087-0.104-0.135-0.154c-0.023-0.024-0.047-0.046-0.072-0.07c-0.024-0.022-0.051-0.048-0.075-0.063
			c-0.061-0.036-0.115-0.083-0.164-0.131c-0.199-0.193-0.355-0.419-0.541-0.621c0.194,0.192,0.363,0.412,0.562,0.598
			c0.025,0.023,0.051,0.046,0.077,0.066c0.025,0.021,0.054,0.04,0.083,0.058c0.033,0.02,0.057,0.042,0.083,0.065
			s0.051,0.048,0.075,0.071c0.049,0.049,0.096,0.101,0.139,0.155c0.022,0.027,0.042,0.056,0.061,0.085
			c0.009,0.016,0.018,0.032,0.025,0.05c0.005,0.018,0.015,0.037,0.004,0.065l-0.015-0.028c0.047,0.01,0.098,0.01,0.151,0.026
			l0.042,0.014l-0.038,0.025c-0.01,0.007-0.019,0.019-0.029,0.033c-0.01,0.014-0.019,0.03-0.04,0.046l-0.007-0.041
			c0.083,0.019,0.166,0.034,0.243,0.016l0.063-0.017l-0.04,0.052c-0.071,0.094-0.149,0.18-0.227,0.263l-0.115,0.132
			c-0.041,0.044-0.086,0.081-0.132,0.116c-0.091,0.073-0.185,0.139-0.271,0.217C25.433,62.27,25.356,62.357,25.299,62.458"/>
		<path clip-path="url(#SVGID_8_)" fill="#243066" d="M24.947,62.693c0,0,0.006-0.001-0.104-0.084
			c-0.146-0.109-0.282-0.472-0.282-0.472L24.5,62.177l0.094,0.071c0,0,0.067,0.23,0.19,0.371c0.048,0.055,0.052,0.083,0.083,0.078
			C24.932,62.688,24.947,62.693,24.947,62.693"/>
		<path clip-path="url(#SVGID_8_)" fill="#243066" d="M20.873,63.479c0,0-0.236,0.208-0.195,0.386c0,0,0.192-0.018,0.207-0.021
			C20.884,63.845,20.735,63.738,20.873,63.479"/>
		<path clip-path="url(#SVGID_8_)" fill="#1371AC" d="M22.427,65.691c0.028-0.148,0.167-0.245,0.308-0.219
			c0.14,0.027,0.232,0.169,0.205,0.317c-0.028,0.146-0.166,0.244-0.308,0.217C22.492,65.98,22.399,65.838,22.427,65.691
			 M22.494,65.705c-0.021,0.108,0.047,0.215,0.151,0.236c0.105,0.02,0.207-0.055,0.227-0.165c0.022-0.11-0.046-0.216-0.15-0.236
			C22.617,65.52,22.515,65.593,22.494,65.705"/>
		<path clip-path="url(#SVGID_8_)" fill="#A8DEEA" d="M22.909,65.637c0,0,0.046,0.106,0,0.183L22.909,65.637z"/>
		<path clip-path="url(#SVGID_8_)" fill="#232153" d="M23.778,62.59c0,0-0.528,0.947-0.915,3.077c0,0-0.053-0.184-0.289-0.094
			c0,0,0.459-2.03,1.05-2.899c0.034-0.051,0.081-0.06,0.129-0.079C23.761,62.592,23.772,62.586,23.778,62.59"/>
		<path clip-path="url(#SVGID_8_)" fill="#26275F" d="M21.538,65.398c0,0,0.77-0.028,1.021,0.003c0.23,0.029-1.114-0.223-2.062,0.11
			C20.498,65.512,21.271,65.407,21.538,65.398"/>
		<path clip-path="url(#SVGID_8_)" fill="#1371AC" d="M21.169,63.29c0,0-0.575,0.208-0.285,0.555c0,0,0.347,0.292,0.435,0.38
			c0,0-0.411-0.463-0.035-0.727c0.211-0.147,0.208-0.237,0.208-0.237S21.354,63.205,21.169,63.29"/>
		<path clip-path="url(#SVGID_8_)" fill="#1371AC" d="M23.778,62.59c0,0-0.138,0.514-0.099,0.514l-0.105,0.043
			C23.574,63.146,23.696,62.738,23.778,62.59"/>
	</g>
	<polygon fill-rule="evenodd" clip-rule="evenodd" fill="#FFFFFF" points="83.002,36.534 81.896,36.534 81.896,38.797 83.48,38.797 
		83.48,37.013 	"/>
	<polygon fill-rule="evenodd" clip-rule="evenodd" fill="#EA5B49" points="83.004,36.537 83.004,37.013 83.48,37.013 	"/>
	<path fill="#A1D0DB" d="M83.231,37.23h-1.086c-0.015,0-0.027-0.011-0.027-0.026c0-0.014,0.013-0.025,0.027-0.025h1.086
		c0.015,0,0.025,0.012,0.025,0.025C83.257,37.22,83.246,37.23,83.231,37.23"/>
	<path fill="#A1D0DB" d="M83.231,37.374h-1.086c-0.015,0-0.027-0.011-0.027-0.025c0-0.014,0.013-0.025,0.027-0.025h1.086
		c0.015,0,0.025,0.012,0.025,0.025C83.257,37.363,83.246,37.374,83.231,37.374"/>
	<path fill="#A1D0DB" d="M83.231,37.521h-1.086c-0.015,0-0.027-0.015-0.027-0.026c0-0.017,0.013-0.026,0.027-0.026h1.086
		c0.015,0,0.025,0.01,0.025,0.026C83.257,37.506,83.246,37.521,83.231,37.521"/>
	<path fill="#A1D0DB" d="M83.231,37.664h-1.086c-0.015,0-0.027-0.012-0.027-0.026s0.013-0.026,0.027-0.026h1.086
		c0.015,0,0.025,0.012,0.025,0.026S83.246,37.664,83.231,37.664"/>
	<path fill="#A1D0DB" d="M83.231,37.808h-1.086c-0.015,0-0.027-0.011-0.027-0.025s0.013-0.027,0.027-0.027h1.086
		c0.015,0,0.025,0.013,0.025,0.027S83.246,37.808,83.231,37.808"/>
	<path fill="#A1D0DB" d="M83.231,37.952h-1.086c-0.015,0-0.027-0.012-0.027-0.026c0-0.014,0.013-0.026,0.027-0.026h1.086
		c0.015,0,0.025,0.013,0.025,0.026C83.257,37.94,83.246,37.952,83.231,37.952"/>
	<path fill="#A1D0DB" d="M83.231,38.097h-1.086c-0.015,0-0.027-0.012-0.027-0.027c0-0.014,0.013-0.026,0.027-0.026h1.086
		c0.015,0,0.025,0.013,0.025,0.026C83.257,38.085,83.246,38.097,83.231,38.097"/>
	<path fill="#A1D0DB" d="M83.231,38.24h-1.086c-0.015,0-0.027-0.011-0.027-0.026c0-0.013,0.013-0.025,0.027-0.025h1.086
		c0.015,0,0.025,0.013,0.025,0.025C83.257,38.229,83.246,38.24,83.231,38.24"/>
	<path fill="#A1D0DB" d="M82.836,38.384h-0.69c-0.015,0-0.027-0.011-0.027-0.024c0-0.015,0.013-0.026,0.027-0.026h0.69
		c0.017,0,0.026,0.012,0.026,0.026C82.862,38.373,82.853,38.384,82.836,38.384"/>
	<path fill="#D24B49" d="M86.204,37.386c-0.007-0.013-0.021-0.021-0.036-0.021h-0.303v-0.761c0-0.033-0.028-0.062-0.063-0.062
		h-0.404c-0.035,0-0.063,0.028-0.063,0.062v0.761h-0.303c-0.014,0-0.028,0.008-0.035,0.021c-0.007,0.014-0.006,0.029,0.003,0.042
		l0.568,0.798c0.008,0.009,0.019,0.017,0.032,0.017s0.025-0.008,0.033-0.017l0.568-0.798c0.005-0.008,0.007-0.016,0.007-0.023
		C86.208,37.398,86.206,37.392,86.204,37.386"/>
	<path fill="#D24B49" d="M86.625,38.761h-2.053v-0.718c0-0.076,0.062-0.14,0.139-0.14c0.076,0,0.14,0.063,0.14,0.14v0.44h1.497
		v-0.44c0-0.076,0.062-0.14,0.14-0.14c0.077,0,0.138,0.063,0.138,0.14V38.761z"/>
	<text transform="matrix(1 0 0 1 51.0059 38.5449)" fill="#1E1E4E" font-family="'Gotham-Bold'" font-size="1.7478">Télécharger mon curriculum vitae</text>
</g>
</svg>
