<?xml version="1.0" encoding="utf-8"?>
<!-- Generator: Adobe Illustrator 16.0.3, SVG Export Plug-In . SVG Version: 6.00 Build 0)  -->
<!DOCTYPE svg PUBLIC "-//W3C//DTD SVG 1.1//EN" "http://www.w3.org/Graphics/SVG/1.1/DTD/svg11.dtd">
<svg version="1.1" id="Layer_1" xmlns="http://www.w3.org/2000/svg" xmlns:xlink="http://www.w3.org/1999/xlink" x="0px" y="0px"
	 width="117.667px" height="68px" viewBox="212.5 42.833 117.667 68" enable-background="new 212.5 42.833 117.667 68"
	 xml:space="preserve">
<polygon fill="#BF1E2E" points="290.176,110.833 212.5,110.833 212.5,42.833 290.176,42.833 330.167,76.833 "/>
<path id="facebook-icon" fill="#FFFFFF" d="M248.724,68.167h-5.244v8.56h5.244v25.146h10.085V76.62h7.035l0.748-8.453h-7.783
	c0,0,0-3.157,0-4.815c0-1.993,0.4-2.782,2.326-2.782c1.553,0,5.457,0,5.457,0v-8.774c0,0-5.752,0-6.981,0
	c-7.503,0-10.887,3.303-10.887,9.63C248.724,66.936,248.724,68.167,248.724,68.167z"/>
</svg>
