<?xml version="1.0" encoding="utf-8"?>
<!-- Generator: Adobe Illustrator 16.0.3, SVG Export Plug-In . SVG Version: 6.00 Build 0)  -->
<!DOCTYPE svg PUBLIC "-//W3C//DTD SVG 1.1//EN" "http://www.w3.org/Graphics/SVG/1.1/DTD/svg11.dtd">
<svg version="1.1" id="Layer_1" xmlns="http://www.w3.org/2000/svg" xmlns:xlink="http://www.w3.org/1999/xlink" x="0px" y="0px"
	 width="342.999px" height="68px" viewBox="-12.832 242.167 342.999 68" enable-background="new -12.832 242.167 342.999 68"
	 xml:space="preserve">
<polygon fill="#BF1E2E" points="290.176,110.833 212.5,110.833 212.5,42.833 290.176,42.833 330.167,76.833 "/>
<path id="facebook-icon" fill="#FFFFFF" d="M248.724,68.167h-5.244v8.56h5.244v25.146h10.085V76.62h7.035l0.748-8.453h-7.783
	c0,0,0-3.157,0-4.815c0-1.993,0.4-2.782,2.326-2.782c1.553,0,5.457,0,5.457,0v-8.774c0,0-5.752,0-6.981,0
	c-7.503,0-10.887,3.303-10.887,9.63C248.724,66.936,248.724,68.167,248.724,68.167z"/>
<polygon fill="#BF1E2E" points="290.176,192.167 212.5,192.167 212.5,124.167 290.176,124.167 330.167,158.167 "/>
<path id="twitter-icon" fill="#FFFFFF" d="M285.037,142.19c-1.876,0.831-3.892,1.394-6.007,1.646
	c2.158-1.293,3.817-3.344,4.599-5.785c-2.021,1.198-4.26,2.068-6.642,2.537c-1.907-2.033-4.625-3.302-7.634-3.302
	c-6.749,0-11.712,6.3-10.187,12.841c-8.691-0.436-16.397-4.601-21.555-10.927c-2.74,4.7-1.421,10.849,3.236,13.962
	c-1.714-0.055-3.327-0.525-4.737-1.308c-0.113,4.845,3.359,9.375,8.388,10.387c-1.472,0.399-3.084,0.492-4.723,0.178
	c1.331,4.155,5.193,7.179,9.77,7.263c-4.396,3.445-9.935,4.985-15.482,4.331c4.627,2.967,10.125,4.699,16.031,4.699
	c19.416,0,30.386-16.4,29.725-31.109C281.86,146.128,283.636,144.287,285.037,142.19z"/>
<polygon fill="#BF1E2E" points="290,310.167 -12.832,310.167 -12.832,242.167 290,242.167 330.167,276.167 "/>
<g>
	<path fill="#FFFFFF" d="M4.721,267.754h3.922l4.222,11.374l4.222-11.374h3.83l-6.529,16.265H11.25L4.721,267.754z"/>
	<path fill="#FFFFFF" d="M23.566,267.754h3.553v16.149h-3.553V267.754z"/>
	<path fill="#FFFFFF" d="M31.155,267.754h12.182v3.16h-8.652v3.276h7.614v3.161h-7.614v3.391h8.767v3.161H31.155V267.754z"/>
	<path fill="#FFFFFF" d="M45.363,267.754h3.807l3.345,10.936l3.622-10.982h3.045l3.622,10.982l3.346-10.936h3.714l-5.514,16.265
		h-3.091l-3.646-10.566l-3.645,10.566h-3.092L45.363,267.754z"/>
	<path fill="#FFFFFF" d="M79.408,267.754h7.498c1.846,0,3.299,0.507,4.222,1.43c0.738,0.738,1.107,1.639,1.107,2.746v0.046
		c0,1.822-0.969,2.838-2.123,3.483c1.869,0.716,3.022,1.8,3.022,3.969v0.046c0,2.953-2.399,4.43-6.045,4.43h-7.683V267.754z
		 M88.706,272.529c0-1.062-0.831-1.661-2.33-1.661h-3.507v3.414h3.276c1.569,0,2.561-0.507,2.561-1.707V272.529z M86.976,277.235
		h-4.106v3.554h4.222c1.569,0,2.515-0.554,2.515-1.754v-0.046C89.605,277.904,88.798,277.235,86.976,277.235z"/>
	<path fill="#FFFFFF" d="M96.062,267.754h12.182v3.16h-8.652v3.276h7.614v3.161h-7.614v3.391h8.767v3.161H96.062V267.754z"/>
	<path fill="#FFFFFF" d="M110.408,281.55l2.1-2.515c1.453,1.2,2.976,1.961,4.822,1.961c1.454,0,2.33-0.576,2.33-1.522v-0.046
		c0-0.9-0.554-1.361-3.253-2.054c-3.253-0.83-5.353-1.73-5.353-4.938v-0.046c0-2.93,2.353-4.868,5.652-4.868
		c2.354,0,4.361,0.738,5.999,2.054l-1.846,2.676c-1.43-0.992-2.838-1.592-4.199-1.592c-1.361,0-2.077,0.623-2.077,1.407v0.047
		c0,1.061,0.692,1.407,3.484,2.122c3.276,0.854,5.122,2.03,5.122,4.845v0.047c0,3.206-2.445,5.006-5.929,5.006
		C114.815,284.134,112.346,283.28,110.408,281.55z"/>
	<path fill="#FFFFFF" d="M129.693,271.029h-4.915v-3.275h13.382v3.275h-4.915v12.874h-3.553V271.029z"/>
	<path fill="#FFFFFF" d="M147.798,267.754h6.598c3.853,0,6.184,2.283,6.184,5.583v0.046c0,3.737-2.907,5.676-6.529,5.676h-2.699
		v4.845h-3.553V267.754z M154.166,275.897c1.776,0,2.814-1.062,2.814-2.445v-0.046c0-1.592-1.107-2.446-2.884-2.446h-2.745v4.938
		H154.166z"/>
	<path fill="#FFFFFF" d="M163.207,267.754h7.383c2.053,0,3.645,0.576,4.707,1.638c0.9,0.899,1.384,2.169,1.384,3.691v0.046
		c0,2.607-1.407,4.245-3.46,5.007l3.945,5.768h-4.153l-3.46-5.168h-2.792v5.168h-3.553V267.754z M170.358,275.598
		c1.73,0,2.723-0.923,2.723-2.284v-0.046c0-1.522-1.062-2.308-2.792-2.308h-3.53v4.638H170.358z"/>
	<path fill="#FFFFFF" d="M185.42,267.638h3.276l6.921,16.266h-3.714l-1.477-3.622h-6.829l-1.477,3.622h-3.622L185.42,267.638z
		 M189.157,277.144l-2.146-5.237l-2.146,5.237H189.157z"/>
	<path fill="#FFFFFF" d="M196.352,275.875v-0.047c0-4.591,3.461-8.352,8.421-8.352c3.046,0,4.868,1.016,6.368,2.492l-2.261,2.606
		c-1.246-1.13-2.515-1.822-4.13-1.822c-2.722,0-4.683,2.261-4.683,5.029v0.046c0,2.769,1.915,5.076,4.683,5.076
		c1.846,0,2.976-0.738,4.245-1.893l2.261,2.284c-1.661,1.776-3.507,2.884-6.622,2.884
		C199.882,284.18,196.352,280.512,196.352,275.875z"/>
	<path fill="#FFFFFF" d="M217.85,271.029h-4.915v-3.275h13.382v3.275h-4.915v12.874h-3.553V271.029z"/>
	<path fill="#FFFFFF" d="M229.198,267.754h3.553v16.149h-3.553V267.754z"/>
	<path fill="#FFFFFF" d="M236.071,275.875v-0.047c0-4.591,3.461-8.352,8.421-8.352c3.045,0,4.868,1.016,6.367,2.492l-2.261,2.606
		c-1.246-1.13-2.515-1.822-4.13-1.822c-2.722,0-4.684,2.261-4.684,5.029v0.046c0,2.769,1.915,5.076,4.684,5.076
		c1.846,0,2.977-0.738,4.245-1.893l2.261,2.284c-1.661,1.776-3.507,2.884-6.622,2.884
		C239.601,284.18,236.071,280.512,236.071,275.875z"/>
	<path fill="#FFFFFF" d="M253.809,267.754h12.182v3.16h-8.651v3.276h7.613v3.161h-7.613v3.391h8.767v3.161h-12.297V267.754z"/>
	<path fill="#FFFFFF" d="M268.156,281.55l2.099-2.515c1.454,1.2,2.977,1.961,4.822,1.961c1.453,0,2.33-0.576,2.33-1.522v-0.046
		c0-0.9-0.554-1.361-3.253-2.054c-3.253-0.83-5.353-1.73-5.353-4.938v-0.046c0-2.93,2.354-4.868,5.652-4.868
		c2.354,0,4.36,0.738,5.999,2.054l-1.846,2.676c-1.431-0.992-2.838-1.592-4.199-1.592s-2.076,0.623-2.076,1.407v0.047
		c0,1.061,0.691,1.407,3.483,2.122c3.276,0.854,5.122,2.03,5.122,4.845v0.047c0,3.206-2.445,5.006-5.93,5.006
		C272.563,284.134,270.094,283.28,268.156,281.55z"/>
</g>
<text transform="matrix(1 0 0 1 16.667 354.4033)" fill="#FFFFFF" font-family="'Gotham-Bold'" font-size="23.066">VIEW BEST PRACTICES</text>
</svg>
