<?xml version="1.0" encoding="utf-8"?>
<!-- Generator: Adobe Illustrator 16.0.3, SVG Export Plug-In . SVG Version: 6.00 Build 0)  -->
<!DOCTYPE svg PUBLIC "-//W3C//DTD SVG 1.1//EN" "http://www.w3.org/Graphics/SVG/1.1/DTD/svg11.dtd">
<svg version="1.1" id="Layer_1" xmlns="http://www.w3.org/2000/svg" xmlns:xlink="http://www.w3.org/1999/xlink" x="0px" y="0px"
	 width="820.045px" height="129.087px" viewBox="0 0 820.045 129.087" enable-background="new 0 0 820.045 129.087"
	 xml:space="preserve">
<polygon fill="#D24B49" points="35.654,-184.491 0,-119.944 35.654,-55.405 820.045,-55.405 820.045,-184.491 "/>
<rect x="561.857" y="-184.491" fill="#1E1E4E" width="129.094" height="129.087"/>
<text transform="matrix(1 0 0 1 106.7852 -98.5752)"><tspan x="0" y="0" fill="#FFFFFF" font-family="'Gotham-Bold'" font-size="46.532" letter-spacing="-5">Y</tspan><tspan x="28.244" y="0" fill="#FFFFFF" font-family="'Gotham-Bold'" font-size="46.532">ou’</tspan><tspan x="101.438" y="0" fill="#FFFFFF" font-family="'Gotham-Bold'" font-size="46.532" letter-spacing="-1">v</tspan><tspan x="128.007" y="0" fill="#FFFFFF" font-family="'Gotham-Bold'" font-size="46.532">e Got Mail!</tspan></text>
<polygon fill="#FFFFFF" points="749.682,-104.06 749.682,-95.956 769.576,-115.868 749.682,-135.771 749.682,-127.69 
	761.504,-115.868 "/>
<path fill-rule="evenodd" clip-rule="evenodd" fill="#FFFFFF" d="M643.066-127.182h-47.475c-0.793,0-1.436,0.642-1.436,1.437v30.94
	c0,0.793,0.643,1.438,1.436,1.438h47.475c0.793,0,1.436-0.645,1.436-1.438v-30.94C644.502-126.541,643.859-127.182,643.066-127.182"
	/>
<path fill-rule="evenodd" clip-rule="evenodd" fill="#EA5B49" d="M643.066-127.182h-47.475c-0.793,0-1.436,0.642-1.436,1.437v0.888
	l25.174,19.253l25.172-19.253v-0.888C644.502-126.541,643.859-127.182,643.066-127.182"/>
<path fill="#D24B49" d="M642.16-143.521c-8.643,0-15.658,7.006-15.658,15.656c0,8.645,7.016,15.655,15.658,15.655
	c8.648,0,15.656-7.01,15.656-15.655C657.816-136.515,650.809-143.521,642.16-143.521 M642.193-117.038
	c-1.223,0-2.23-0.992-2.23-2.226c0-1.232,1.008-2.232,2.23-2.232c1.236,0,2.232,1,2.232,2.232
	C644.426-118.03,643.43-117.038,642.193-117.038 M645.148-135.294c-0.191,1.501-1.574,8.822-2.033,11.221
	c-0.082,0.45-0.473,0.772-0.93,0.772h-0.018c-0.469,0-0.869-0.334-0.955-0.795c-0.467-2.437-1.848-9.763-2.033-11.24
	c-0.223-1.785,1.168-3.362,2.967-3.362C643.955-138.699,645.373-137.099,645.148-135.294"/>
<path fill="#FFFFFF" d="M642.193-121.497c-1.223,0-2.23,1-2.23,2.231c0,1.235,1.008,2.227,2.23,2.227
	c1.236,0,2.232-0.992,2.232-2.227C644.426-120.497,643.43-121.497,642.193-121.497"/>
<path fill="#FFFFFF" d="M642.146-138.699c-1.799,0-3.189,1.577-2.967,3.362c0.186,1.477,1.566,8.803,2.033,11.241
	c0.086,0.459,0.486,0.793,0.955,0.793h0.018c0.457,0,0.848-0.321,0.93-0.771c0.459-2.398,1.842-9.715,2.033-11.221
	C645.373-137.099,643.955-138.699,642.146-138.699"/>
<polygon fill="#D24B49" points="35.654,0 0,64.547 35.654,129.085 820.045,129.085 820.045,0 "/>
<rect x="561.857" fill="#1E1E4E" width="129.094" height="129.087"/>
<g>
	<path fill="#FFFFFF" d="M119.862,73.071l-12.519-19.732h8.377l7.772,13.077l7.911-13.077h8.145l-12.52,19.593v12.984h-7.167V73.071
		z"/>
	<path fill="#FFFFFF" d="M136.984,73.583V73.49c0-7.167,5.771-12.985,13.543-12.985c7.725,0,13.449,5.725,13.449,12.893v0.093
		c0,7.167-5.771,12.984-13.543,12.984C142.708,86.475,136.984,80.75,136.984,73.583z M156.996,73.583V73.49
		c0-3.677-2.653-6.888-6.563-6.888c-4.049,0-6.469,3.117-6.469,6.795v0.093c0,3.677,2.652,6.888,6.563,6.888
		C154.576,80.378,156.996,77.26,156.996,73.583z"/>
	<path fill="#FFFFFF" d="M168.904,77.12V60.971h7.074v13.915c0,3.352,1.582,5.073,4.281,5.073s4.421-1.722,4.421-5.073V60.971h7.074
		v24.945h-7.074v-3.537c-1.628,2.095-3.723,4.003-7.307,4.003C172.022,86.382,168.904,82.845,168.904,77.12z"/>
	<path fill="#FFFFFF" d="M196.357,65.392c3.212-0.325,4.794-1.954,4.562-4.607h-2.886v-7.445h7.539v6.282
		c0,6.144-3.071,8.61-8.609,8.703L196.357,65.392z"/>
	<path fill="#FFFFFF" d="M209.153,60.971h7.493l5.585,16.708l5.631-16.708h7.354l-9.82,25.132h-6.422L209.153,60.971z"/>
	<path fill="#FFFFFF" d="M236.747,73.583V73.49c0-7.12,5.072-12.985,12.332-12.985c8.331,0,12.147,6.47,12.147,13.543
		c0,0.559-0.047,1.211-0.094,1.862h-17.358c0.698,3.211,2.932,4.887,6.097,4.887c2.373,0,4.095-0.745,6.05-2.56l4.049,3.583
		c-2.327,2.886-5.678,4.654-10.192,4.654C242.285,86.475,236.747,81.216,236.747,73.583z M254.339,71.489
		c-0.419-3.165-2.281-5.306-5.26-5.306c-2.932,0-4.84,2.095-5.398,5.306H254.339z"/>
	<path fill="#FFFFFF" d="M279.742,69.72v-0.092c0-9.262,7.213-16.848,17.08-16.848c5.863,0,9.4,1.582,12.798,4.468l-4.515,5.444
		c-2.513-2.094-4.746-3.304-8.517-3.304c-5.212,0-9.354,4.607-9.354,10.146v0.094c0,5.957,4.096,10.331,9.867,10.331
		c2.605,0,4.933-0.651,6.748-1.954v-4.654h-7.214v-6.189h14.147v14.147c-3.351,2.839-7.958,5.166-13.915,5.166
		C286.723,86.475,279.742,79.354,279.742,69.72z"/>
	<path fill="#FFFFFF" d="M315.711,73.583V73.49c0-7.167,5.771-12.985,13.543-12.985c7.725,0,13.449,5.725,13.449,12.893v0.093
		c0,7.167-5.771,12.984-13.543,12.984C321.435,86.475,315.711,80.75,315.711,73.583z M335.723,73.583V73.49
		c0-3.677-2.653-6.888-6.563-6.888c-4.049,0-6.469,3.117-6.469,6.795v0.093c0,3.677,2.652,6.888,6.563,6.888
		C333.303,80.378,335.723,77.26,335.723,73.583z"/>
	<path fill="#FFFFFF" d="M348.98,78.842V67.021h-2.979v-6.05h2.979v-6.376h7.074v6.376h5.863v6.05h-5.863v10.658
		c0,1.629,0.698,2.42,2.28,2.42c1.303,0,2.467-0.326,3.49-0.885v5.678c-1.489,0.885-3.211,1.443-5.585,1.443
		C351.912,86.335,348.98,84.612,348.98,78.842z"/>
	<path fill="#FFFFFF" d="M381.831,53.339h7.726l8.563,13.775l8.563-13.775h7.725v32.577h-7.12V64.647l-9.168,13.916h-0.187
		l-9.075-13.776v21.129h-7.027V53.339z"/>
	<path fill="#FFFFFF" d="M419.987,78.749v-0.094c0-5.444,4.142-7.957,10.052-7.957c2.514,0,4.328,0.418,6.097,1.023v-0.419
		c0-2.933-1.814-4.562-5.352-4.562c-2.699,0-4.607,0.513-6.888,1.35l-1.769-5.398c2.746-1.209,5.445-2,9.68-2
		c3.863,0,6.655,1.023,8.424,2.791c1.861,1.862,2.699,4.607,2.699,7.959v14.474h-6.841v-2.699c-1.723,1.908-4.096,3.165-7.54,3.165
		C423.85,86.382,419.987,83.683,419.987,78.749z M436.229,77.12v-1.257c-1.21-0.558-2.793-0.931-4.515-0.931
		c-3.025,0-4.887,1.21-4.887,3.443v0.094c0,1.908,1.582,3.025,3.863,3.025C433.995,81.495,436.229,79.68,436.229,77.12z"/>
	<path fill="#FFFFFF" d="M449.163,51.942h7.446v6.283h-7.446V51.942z M449.349,60.971h7.074v24.945h-7.074V60.971z"/>
	<path fill="#FFFFFF" d="M463.4,51.942h7.074v33.974H463.4V51.942z"/>
	<path fill="#FFFFFF" d="M477.359,54.27v-0.931h8.284v0.931l-2.188,20.57h-3.909L477.359,54.27z M477.731,78.47h7.539v7.446h-7.539
		V78.47z"/>
</g>
<polygon fill="#FFFFFF" points="749.682,80.431 749.682,88.534 769.576,68.622 749.682,48.72 749.682,56.801 761.504,68.622 "/>
<path fill-rule="evenodd" clip-rule="evenodd" fill="#FFFFFF" d="M643.066,57.309h-47.475c-0.793,0-1.436,0.642-1.436,1.437v30.939
	c0,0.793,0.643,1.438,1.436,1.438h47.475c0.793,0,1.436-0.645,1.436-1.438V58.745C644.502,57.95,643.859,57.309,643.066,57.309"/>
<path fill-rule="evenodd" clip-rule="evenodd" fill="#EA5B49" d="M643.066,57.309h-47.475c-0.793,0-1.436,0.642-1.436,1.437v0.888
	l25.174,19.253l25.172-19.253v-0.888C644.502,57.95,643.859,57.309,643.066,57.309"/>
<path fill="#D24B49" d="M642.16,40.97c-8.643,0-15.658,7.006-15.658,15.656c0,8.645,7.016,15.654,15.658,15.654
	c8.648,0,15.656-7.01,15.656-15.654C657.816,47.976,650.809,40.97,642.16,40.97 M642.193,67.452c-1.223,0-2.23-0.992-2.23-2.226
	c0-1.232,1.008-2.232,2.23-2.232c1.236,0,2.232,1,2.232,2.232C644.426,66.46,643.43,67.452,642.193,67.452 M645.148,49.196
	c-0.191,1.501-1.574,8.822-2.033,11.221c-0.082,0.45-0.473,0.772-0.93,0.772h-0.018c-0.469,0-0.869-0.334-0.955-0.795
	c-0.467-2.437-1.848-9.763-2.033-11.24c-0.223-1.785,1.168-3.362,2.967-3.362C643.955,45.792,645.373,47.392,645.148,49.196"/>
<path fill="#FFFFFF" d="M642.193,62.994c-1.223,0-2.23,1-2.23,2.231c0,1.234,1.008,2.227,2.23,2.227
	c1.236,0,2.232-0.992,2.232-2.227C644.426,63.994,643.43,62.994,642.193,62.994"/>
<path fill="#FFFFFF" d="M642.146,45.792c-1.799,0-3.189,1.577-2.967,3.362c0.186,1.477,1.566,8.803,2.033,11.241
	c0.086,0.459,0.486,0.793,0.955,0.793h0.018c0.457,0,0.848-0.321,0.93-0.771c0.459-2.398,1.842-9.715,2.033-11.221
	C645.373,47.392,643.955,45.792,642.146,45.792"/>
</svg>
