<?xml version="1.0" encoding="utf-8"?>
<!-- Generator: Adobe Illustrator 16.0.3, SVG Export Plug-In . SVG Version: 6.00 Build 0)  -->
<!DOCTYPE svg PUBLIC "-//W3C//DTD SVG 1.1//EN" "http://www.w3.org/Graphics/SVG/1.1/DTD/svg11.dtd">
<svg version="1.1" id="Layer_1" xmlns="http://www.w3.org/2000/svg" xmlns:xlink="http://www.w3.org/1999/xlink" x="0px" y="0px"
	 width="100px" height="100px" viewBox="0 0 100 100" enable-background="new 0 0 100 100" xml:space="preserve">
<path id="user-14-icon" fill="#FFFFFF" d="M97.865,90.359H79.095c-0.001-20.43-10.212-10.72-10.212-28.621
	c0-6.463,4.23-9.97,9.663-9.97c8.025,0,13.611,7.663,6.011,21.993c-2.497,4.708,2.659,5.826,8.198,7.104
	C98.292,82.143,97.865,85.063,97.865,90.359z M6.245,80.866c5.539-1.277,10.695-2.396,8.198-7.104
	c-7.601-14.33-2.015-21.994,6.012-21.994c5.432,0,9.663,3.508,9.663,9.97c0,17.901-10.211,8.192-10.212,28.621H1.135
	C1.135,85.063,0.708,82.143,6.245,80.866z M67.374,78.419c-6.968-1.607-13.453-3.015-10.313-8.937
	c9.562-18.025,2.534-27.664-7.562-27.664c-10.295,0-17.148,10.009-7.562,27.664c3.235,5.958-3.495,7.363-10.312,8.937
	c-6.964,1.605-6.429,5.278-6.429,11.94h48.604C73.802,83.697,74.338,80.024,67.374,78.419z"/>
</svg>
