<?xml version="1.0" encoding="utf-8"?>
<!-- Generator: Adobe Illustrator 16.0.3, SVG Export Plug-In . SVG Version: 6.00 Build 0)  -->
<!DOCTYPE svg PUBLIC "-//W3C//DTD SVG 1.1//EN" "http://www.w3.org/Graphics/SVG/1.1/DTD/svg11.dtd">
<svg version="1.1" id="Layer_1" xmlns="http://www.w3.org/2000/svg" xmlns:xlink="http://www.w3.org/1999/xlink" x="0px" y="0px"
	 width="117.667px" height="68px" viewBox="212.5 124.167 117.667 68" enable-background="new 212.5 124.167 117.667 68"
	 xml:space="preserve">
<polygon fill="#BF1E2E" points="290.176,192.167 212.5,192.167 212.5,124.167 290.176,124.167 330.167,158.167 "/>
<path id="twitter-icon" fill="#FFFFFF" d="M285.037,142.189c-1.876,0.832-3.892,1.394-6.007,1.646
	c2.158-1.294,3.817-3.344,4.599-5.786c-2.021,1.198-4.26,2.068-6.642,2.538c-1.907-2.033-4.625-3.302-7.634-3.302
	c-6.749,0-11.712,6.299-10.187,12.84c-8.691-0.436-16.397-4.6-21.555-10.926c-2.74,4.7-1.421,10.849,3.236,13.961
	c-1.714-0.054-3.327-0.524-4.737-1.307c-0.113,4.845,3.359,9.375,8.388,10.386c-1.472,0.4-3.084,0.492-4.723,0.179
	c1.331,4.155,5.193,7.178,9.77,7.262c-4.396,3.446-9.935,4.985-15.482,4.331c4.627,2.968,10.125,4.699,16.031,4.699
	c19.416,0,30.386-16.399,29.725-31.109C281.86,146.128,283.636,144.287,285.037,142.189z"/>
</svg>
