<?xml version="1.0" encoding="utf-8"?>
<!-- Generator: Adobe Illustrator 16.0.3, SVG Export Plug-In . SVG Version: 6.00 Build 0)  -->
<!DOCTYPE svg PUBLIC "-//W3C//DTD SVG 1.1//EN" "http://www.w3.org/Graphics/SVG/1.1/DTD/svg11.dtd">
<svg version="1.1" id="Layer_1" xmlns="http://www.w3.org/2000/svg" xmlns:xlink="http://www.w3.org/1999/xlink" x="0px" y="0px"
	 width="593px" height="81.247px" viewBox="-250 -13.247 593 81.247" enable-background="new -250 -13.247 593 81.247"
	 xml:space="preserve">
<polygon fill="#BF1E2E" points="292.444,68 -250,68 -250,-13.247 292.444,-13.247 340.437,27.376 "/>
<g enable-background="new    ">
	<path fill="#FFFFFF" d="M-223.433,17.605h4.686l5.045,13.588l5.044-13.588h4.576l-7.8,19.433h-3.75L-223.433,17.605z"/>
	<path fill="#FFFFFF" d="M-203.204,27.306v-0.054c0-5.485,4.328-9.979,10.282-9.979c5.954,0,10.227,4.439,10.227,9.924v0.055
		c0,5.486-4.327,9.979-10.281,9.979C-198.931,37.231-203.204,32.793-203.204,27.306z M-187.134,27.306v-0.054
		c0-3.309-2.425-6.065-5.842-6.065c-3.418,0-5.789,2.703-5.789,6.01v0.055c0,3.307,2.425,6.065,5.843,6.065
		C-189.503,33.317-187.134,30.616-187.134,27.306z"/>
	<path fill="#FFFFFF" d="M-178.73,17.605h4.245v19.294h-4.245V17.605z"/>
	<path fill="#FFFFFF" d="M-169.664,17.605h8.821c2.454,0,4.356,0.689,5.623,1.956c1.076,1.076,1.655,2.592,1.655,4.412v0.054
		c0,3.116-1.682,5.072-4.135,5.981l4.714,6.892h-4.962l-4.135-6.175h-3.336v6.175h-4.245V17.605z M-161.119,26.979
		c2.068,0,3.252-1.104,3.252-2.731v-0.055c0-1.818-1.268-2.757-3.335-2.757h-4.218v5.543H-161.119z"/>
	<path fill="#FFFFFF" d="M-141.471,17.605h4.246v15.434h9.619v3.861h-13.865V17.605z"/>
	<path fill="#FFFFFF" d="M-124.411,17.605h14.554v3.776h-10.338v3.916h9.096v3.774h-9.096v4.054h10.475v3.775h-14.691V17.605z"/>
	<path fill="#FFFFFF" d="M-107.271,34.088l2.508-3.004c1.737,1.433,3.556,2.342,5.763,2.342c1.736,0,2.783-0.688,2.783-1.82v-0.054
		c0-1.076-0.662-1.627-3.887-2.455c-3.887-0.991-6.395-2.066-6.395-5.898v-0.056c0-3.5,2.812-5.816,6.753-5.816
		c2.813,0,5.21,0.881,7.168,2.455l-2.206,3.196c-1.709-1.185-3.391-1.902-5.017-1.902s-2.48,0.746-2.48,1.681v0.057
		c0,1.267,0.825,1.682,4.161,2.535c3.915,1.021,6.121,2.424,6.121,5.788v0.055c0,3.833-2.924,5.982-7.085,5.982
		C-102.005,37.175-104.955,36.156-107.271,34.088z"/>
	<path fill="#FFFFFF" d="M-80.042,17.605h7.884c4.604,0,7.388,2.729,7.388,6.671v0.055c0,4.465-3.474,6.781-7.802,6.781h-3.225
		v5.787h-4.246V17.605z M-72.434,27.335c2.123,0,3.364-1.27,3.364-2.922v-0.055c0-1.902-1.324-2.923-3.446-2.923h-3.28v5.9H-72.434z
		"/>
	<path fill="#FFFFFF" d="M-61.633,17.605h8.822c2.454,0,4.354,0.689,5.624,1.956c1.075,1.076,1.655,2.592,1.655,4.412v0.054
		c0,3.116-1.684,5.072-4.136,5.981l4.714,6.892h-4.963l-4.134-6.175h-3.335v6.175h-4.247V17.605z M-53.087,26.979
		c2.068,0,3.252-1.104,3.252-2.731v-0.055c0-1.818-1.267-2.757-3.335-2.757h-4.217v5.543H-53.087z"/>
	<path fill="#FFFFFF" d="M-35.091,17.466h3.914l8.271,19.434h-4.439l-1.764-4.326h-8.16l-1.764,4.326h-4.328L-35.091,17.466z
		 M-30.625,28.824l-2.563-6.258l-2.565,6.258H-30.625z"/>
	<path fill="#FFFFFF" d="M-17.923,21.519h-5.871v-3.914h15.988v3.914h-5.871v15.381h-4.246V21.519z"/>
	<path fill="#FFFFFF" d="M-4.363,17.605h4.244v19.294h-4.244V17.605z"/>
	<path fill="#FFFFFF" d="M21.932,37.479l-2.122-1.902c-1.627,1.049-3.584,1.655-5.734,1.655c-5.954,0-10.227-4.438-10.227-9.925
		v-0.054c0-5.485,4.328-9.979,10.282-9.979c5.955,0,10.228,4.439,10.228,9.924v0.055c0,2.04-0.633,3.94-1.709,5.541l1.985,1.683
		L21.932,37.479z M16.667,32.793l-3.144-2.676l2.703-3.028l3.171,2.864c0.33-0.769,0.523-1.679,0.523-2.646v-0.054
		c0-3.309-2.427-6.065-5.845-6.065c-3.417,0-5.789,2.703-5.789,6.01v0.055c0,3.307,2.426,6.065,5.843,6.065
		C15.068,33.317,15.923,33.152,16.667,32.793z"/>
	<path fill="#FFFFFF" d="M27.825,28.629V17.605h4.245V28.52c0,3.143,1.572,4.77,4.161,4.77c2.593,0,4.164-1.573,4.164-4.632V17.605
		h4.245v10.886c0,5.848-3.281,8.712-8.463,8.712C30.995,37.203,27.825,34.308,27.825,28.629z"/>
	<path fill="#FFFFFF" d="M48.964,17.605H63.52v3.776H53.182v3.916h9.096v3.774h-9.096v4.054h10.475v3.775H48.964V17.605z"/>
	<path fill="#FFFFFF" d="M66.104,34.088l2.509-3.004c1.737,1.433,3.556,2.342,5.761,2.342c1.736,0,2.784-0.688,2.784-1.82v-0.054
		c0-1.076-0.662-1.627-3.886-2.455c-3.887-0.991-6.395-2.066-6.395-5.898v-0.056c0-3.5,2.812-5.816,6.753-5.816
		c2.812,0,5.209,0.881,7.167,2.455l-2.206,3.196c-1.709-1.185-3.391-1.902-5.017-1.902c-1.627,0-2.481,0.746-2.481,1.681v0.057
		c0,1.267,0.826,1.682,4.162,2.535c3.915,1.021,6.121,2.424,6.121,5.788v0.055c0,3.833-2.924,5.982-7.085,5.982
		C71.371,37.175,68.421,36.156,66.104,34.088z"/>
	<path fill="#FFFFFF" d="M93.333,17.605h14.554v3.776H97.552v3.916h9.095v3.774h-9.095v4.054h10.474v3.775H93.333V17.605z"/>
	<path fill="#FFFFFF" d="M128.532,17.605l-6.452,9.427l6.727,9.867h-4.961l-4.329-6.616l-4.355,6.616h-4.826l6.728-9.811
		l-6.45-9.483h4.961l4.024,6.258l4.107-6.258H128.532z"/>
	<path fill="#FFFFFF" d="M131.97,17.605h14.569v3.776h-10.35v3.916h9.11v3.774h-9.11v4.054h10.489v3.775H131.97V17.605z"/>
	<path fill="#FFFFFF" d="M150.452,17.605h4.575l5.072,8.16l5.071-8.16h4.576v19.294h-4.216V24.303l-5.43,8.244h-0.109l-5.379-8.162
		v12.515h-4.16V17.605z"/>
	<path fill="#FFFFFF" d="M174.375,17.605h7.883c4.602,0,7.388,2.729,7.388,6.671v0.055c0,4.465-3.475,6.781-7.802,6.781h-3.224
		v5.787h-4.245V17.605z M181.983,27.335c2.12,0,3.363-1.27,3.363-2.922v-0.055c0-1.902-1.323-2.923-3.448-2.923h-3.277v5.9H181.983z
		"/>
	<path fill="#FFFFFF" d="M192.785,17.605h4.244v15.434h9.619v3.861h-13.863V17.605z"/>
	<path fill="#FFFFFF" d="M216.459,17.466h3.914l8.271,19.434h-4.439l-1.766-4.326h-8.16l-1.764,4.326h-4.327L216.459,17.466z
		 M220.924,28.824l-2.563-6.258l-2.565,6.258H220.924z"/>
	<path fill="#FFFFFF" d="M231.807,17.605h4.245v19.294h-4.245V17.605z"/>
	<path fill="#FFFFFF" d="M240.875,17.605h8.819c2.454,0,4.355,0.689,5.625,1.956c1.072,1.076,1.653,2.592,1.653,4.412v0.054
		c0,3.116-1.683,5.072-4.134,5.981l4.713,6.892h-4.964l-4.135-6.175h-3.335v6.175h-4.243V17.605z M249.417,26.979
		c2.069,0,3.255-1.104,3.255-2.731v-0.055c0-1.818-1.27-2.757-3.337-2.757h-4.218v5.543H249.417z"/>
	<path fill="#FFFFFF" d="M260.799,17.605h14.556v3.776h-10.337v3.916h9.096v3.774h-9.096v4.054h10.475v3.775h-14.693V17.605z"/>
	<path fill="#FFFFFF" d="M277.941,34.088l2.509-3.004c1.735,1.433,3.557,2.342,5.76,2.342c1.737,0,2.786-0.688,2.786-1.82v-0.054
		c0-1.076-0.662-1.627-3.89-2.455c-3.885-0.991-6.394-2.066-6.394-5.898v-0.056c0-3.5,2.812-5.816,6.753-5.816
		c2.814,0,5.21,0.881,7.168,2.455l-2.205,3.196c-1.709-1.185-3.392-1.902-5.019-1.902c-1.626,0-2.479,0.746-2.479,1.681v0.057
		c0,1.267,0.824,1.682,4.16,2.535c3.914,1.021,6.119,2.424,6.119,5.788v0.055c0,3.833-2.922,5.982-7.084,5.982
		C283.205,37.175,280.254,36.156,277.941,34.088z"/>
</g>
</svg>
