<?xml version="1.0" encoding="utf-8"?>
<!-- Generator: Adobe Illustrator 16.0.3, SVG Export Plug-In . SVG Version: 6.00 Build 0)  -->
<!DOCTYPE svg PUBLIC "-//W3C//DTD SVG 1.1//EN" "http://www.w3.org/Graphics/SVG/1.1/DTD/svg11.dtd">
<svg version="1.1" id="Layer_1" xmlns="http://www.w3.org/2000/svg" xmlns:xlink="http://www.w3.org/1999/xlink" x="0px" y="0px"
	 width="820.045px" height="129.086px" viewBox="0 0 820.045 129.086" enable-background="new 0 0 820.045 129.086"
	 xml:space="preserve">
<polygon fill="#D24B49" points="35.654,0.036 0,64.594 35.654,129.136 820.045,129.136 820.045,0.036 "/>
<rect x="561.857" y="-0.05" fill="#1E1E4E" width="129.094" height="129.086"/>
<g>
	<path fill="#FFFFFF" d="M65.345,49.946h6.799l7.318,19.716l7.319-19.716h6.639L82.102,78.142h-5.438L65.345,49.946z"/>
	<path fill="#FFFFFF" d="M95.265,67.343v-0.08c0-6.159,4.959-11.158,11.638-11.158c6.64,0,11.559,4.92,11.559,11.078v0.08
		c0,6.159-4.959,11.158-11.639,11.158C100.184,78.421,95.265,73.502,95.265,67.343z M112.462,67.343v-0.08
		c0-3.159-2.279-5.919-5.64-5.919c-3.479,0-5.559,2.68-5.559,5.839v0.08c0,3.16,2.279,5.919,5.639,5.919
		C110.382,73.182,112.462,70.502,112.462,67.343z"/>
	<path fill="#FFFFFF" d="M121.903,70.383V56.505h6.079v11.958c0,2.879,1.359,4.359,3.68,4.359c2.319,0,3.799-1.48,3.799-4.359
		V56.505h6.079v21.437h-6.079v-3.04c-1.399,1.8-3.199,3.439-6.279,3.439C124.583,78.341,121.903,75.302,121.903,70.383z"/>
	<path fill="#FFFFFF" d="M144.504,75.102l2.6-3.999c2.319,1.68,4.759,2.56,6.759,2.56c1.76,0,2.56-0.64,2.56-1.6v-0.08
		c0-1.32-2.08-1.76-4.439-2.479c-2.999-0.88-6.398-2.28-6.398-6.439v-0.08c0-4.359,3.519-6.799,7.838-6.799
		c2.72,0,5.68,0.92,7.999,2.479l-2.319,4.199c-2.12-1.239-4.239-1.999-5.8-1.999c-1.479,0-2.239,0.64-2.239,1.479v0.08
		c0,1.2,2.04,1.76,4.359,2.56c2.999,1,6.479,2.439,6.479,6.358v0.08c0,4.76-3.559,6.919-8.198,6.919
		C150.703,78.341,147.343,77.341,144.504,75.102z"/>
	<path fill="#FFFFFF" d="M175.383,71.782v-0.08c0-4.679,3.56-6.839,8.639-6.839c2.16,0,3.72,0.36,5.239,0.88v-0.36
		c0-2.52-1.56-3.919-4.6-3.919c-2.319,0-3.959,0.44-5.919,1.16l-1.52-4.64c2.359-1.04,4.68-1.72,8.318-1.72
		c3.32,0,5.72,0.88,7.239,2.399c1.6,1.6,2.319,3.96,2.319,6.839v12.438h-5.879v-2.32c-1.479,1.641-3.52,2.72-6.479,2.72
		C178.702,78.341,175.383,76.021,175.383,71.782z M189.341,70.383v-1.08c-1.04-0.48-2.399-0.8-3.88-0.8
		c-2.599,0-4.199,1.04-4.199,2.959v0.08c0,1.64,1.36,2.6,3.32,2.6C187.421,74.142,189.341,72.582,189.341,70.383z"/>
	<path fill="#FFFFFF" d="M197.623,56.505h6.439l4.799,14.357l4.839-14.357h6.319l-8.438,21.597h-5.52L197.623,56.505z"/>
	<path fill="#FFFFFF" d="M221.702,67.343v-0.08c0-6.119,4.359-11.158,10.599-11.158c7.158,0,10.438,5.56,10.438,11.639
		c0,0.479-0.04,1.039-0.08,1.6h-14.917c0.6,2.76,2.52,4.199,5.239,4.199c2.039,0,3.52-0.64,5.199-2.2l3.479,3.08
		c-2,2.479-4.88,3.999-8.759,3.999C226.461,78.421,221.702,73.901,221.702,67.343z M236.819,65.543
		c-0.359-2.72-1.959-4.559-4.519-4.559c-2.52,0-4.16,1.8-4.64,4.559H236.819z"/>
	<path fill="#FFFFFF" d="M245.742,73.662l11.078-12.238h-10.719v-4.919h18.277v4.279l-11.118,12.238h11.118v4.919h-18.637V73.662z"
		/>
	<path fill="#FFFFFF" d="M279.221,70.383V56.505h6.079v11.958c0,2.879,1.359,4.359,3.68,4.359c2.319,0,3.799-1.48,3.799-4.359
		V56.505h6.079v21.437h-6.079v-3.04c-1.399,1.8-3.199,3.439-6.279,3.439C281.9,78.341,279.221,75.302,279.221,70.383z"/>
	<path fill="#FFFFFF" d="M303.5,56.505h6.079v3.039c1.399-1.8,3.199-3.439,6.278-3.439c4.6,0,7.279,3.04,7.279,7.959v13.878h-6.079
		V65.983c0-2.88-1.359-4.359-3.68-4.359c-2.319,0-3.799,1.479-3.799,4.359v11.958H303.5V56.505z"/>
	<path fill="#FFFFFF" d="M338.819,56.505h6.079v3.039c1.399-1.8,3.239-3.439,6.318-3.439c2.8,0,4.92,1.24,6.039,3.399
		c1.88-2.199,4.119-3.399,7.039-3.399c4.52,0,7.238,2.72,7.238,7.879v13.958h-6.078V65.983c0-2.88-1.28-4.359-3.56-4.359
		c-2.28,0-3.68,1.479-3.68,4.359v11.958h-6.079V65.983c0-2.88-1.279-4.359-3.56-4.359c-2.279,0-3.679,1.479-3.679,4.359v11.958
		h-6.079V56.505z"/>
	<path fill="#FFFFFF" d="M374.979,67.343v-0.08c0-6.119,4.359-11.158,10.599-11.158c7.158,0,10.438,5.56,10.438,11.639
		c0,0.479-0.04,1.039-0.08,1.6h-14.917c0.6,2.76,2.52,4.199,5.239,4.199c2.039,0,3.52-0.64,5.199-2.2l3.479,3.08
		c-2,2.479-4.88,3.999-8.759,3.999C379.738,78.421,374.979,73.901,374.979,67.343z M390.097,65.543
		c-0.359-2.72-1.959-4.559-4.519-4.559c-2.52,0-4.16,1.8-4.64,4.559H390.097z"/>
	<path fill="#FFFFFF" d="M398.06,75.102l2.6-3.999c2.319,1.68,4.759,2.56,6.759,2.56c1.76,0,2.56-0.64,2.56-1.6v-0.08
		c0-1.32-2.08-1.76-4.439-2.479c-2.999-0.88-6.398-2.28-6.398-6.439v-0.08c0-4.359,3.519-6.799,7.838-6.799
		c2.72,0,5.68,0.92,7.999,2.479l-2.319,4.199c-2.12-1.239-4.239-1.999-5.8-1.999c-1.479,0-2.239,0.64-2.239,1.479v0.08
		c0,1.2,2.04,1.76,4.359,2.56c2.999,1,6.479,2.439,6.479,6.358v0.08c0,4.76-3.559,6.919-8.198,6.919
		C404.259,78.341,400.898,77.341,398.06,75.102z"/>
	<path fill="#FFFFFF" d="M417.339,75.102l2.6-3.999c2.319,1.68,4.759,2.56,6.759,2.56c1.76,0,2.56-0.64,2.56-1.6v-0.08
		c0-1.32-2.08-1.76-4.439-2.479c-2.999-0.88-6.398-2.28-6.398-6.439v-0.08c0-4.359,3.519-6.799,7.838-6.799
		c2.72,0,5.68,0.92,7.999,2.479l-2.319,4.199c-2.12-1.239-4.239-1.999-5.8-1.999c-1.479,0-2.239,0.64-2.239,1.479v0.08
		c0,1.2,2.04,1.76,4.359,2.56c2.999,1,6.479,2.439,6.479,6.358v0.08c0,4.76-3.559,6.919-8.198,6.919
		C423.538,78.341,420.178,77.341,417.339,75.102z"/>
	<path fill="#FFFFFF" d="M437.019,71.782v-0.08c0-4.679,3.56-6.839,8.639-6.839c2.16,0,3.72,0.36,5.239,0.88v-0.36
		c0-2.52-1.56-3.919-4.6-3.919c-2.319,0-3.959,0.44-5.919,1.16l-1.52-4.64c2.359-1.04,4.68-1.72,8.318-1.72
		c3.32,0,5.72,0.88,7.239,2.399c1.6,1.6,2.319,3.96,2.319,6.839v12.438h-5.879v-2.32c-1.479,1.641-3.52,2.72-6.479,2.72
		C440.338,78.341,437.019,76.021,437.019,71.782z M450.977,70.383v-1.08c-1.04-0.48-2.399-0.8-3.879-0.8c-2.6,0-4.2,1.04-4.2,2.959
		v0.08c0,1.64,1.36,2.6,3.32,2.6C449.057,74.142,450.977,72.582,450.977,70.383z"/>
	<path fill="#FFFFFF" d="M461.299,82.181l2.079-4.56c2.2,1.24,4.399,1.96,7.239,1.96c4.159,0,6.119-2,6.119-5.839v-1.04
		c-1.8,2.159-3.76,3.479-6.999,3.479c-4.999,0-9.519-3.64-9.519-9.998v-0.08c0-6.399,4.6-9.999,9.519-9.999
		c3.319,0,5.279,1.4,6.919,3.2v-2.8h6.079v16.597c0,3.84-0.92,6.64-2.72,8.439c-2,1.999-5.079,2.879-9.238,2.879
		C467.298,84.42,464.018,83.62,461.299,82.181z M476.736,66.184v-0.08c0-2.92-2.28-4.96-5.239-4.96c-2.96,0-5.199,2.04-5.199,4.96
		v0.08c0,2.959,2.239,4.959,5.199,4.959C474.456,71.143,476.736,69.103,476.736,66.184z"/>
	<path fill="#FFFFFF" d="M486.338,67.343v-0.08c0-6.119,4.359-11.158,10.599-11.158c7.158,0,10.438,5.56,10.438,11.639
		c0,0.479-0.04,1.039-0.08,1.6h-14.917c0.6,2.76,2.52,4.199,5.239,4.199c2.039,0,3.52-0.64,5.199-2.2l3.479,3.08
		c-2,2.479-4.88,3.999-8.759,3.999C491.097,78.421,486.338,73.901,486.338,67.343z M501.455,65.543
		c-0.359-2.72-1.959-4.559-4.519-4.559c-2.52,0-4.16,1.8-4.64,4.559H501.455z"/>
	<path fill="#FFFFFF" d="M511.298,50.746v-0.8h7.118v0.8l-1.88,17.677h-3.359L511.298,50.746z M511.617,71.542h6.479v6.399h-6.479
		V71.542z"/>
</g>
<polygon fill="#FFFFFF" points="749.682,80.382 749.682,88.485 769.576,68.571 749.682,48.669 749.682,56.751 761.504,68.571 "/>
<path fill-rule="evenodd" clip-rule="evenodd" fill="#FFFFFF" d="M643.067,57.259h-47.476c-0.793,0-1.436,0.643-1.436,1.436v30.941
	c0,0.793,0.643,1.436,1.436,1.436h47.476c0.793,0,1.436-0.643,1.436-1.436V58.694C644.503,57.901,643.86,57.259,643.067,57.259"/>
<path fill-rule="evenodd" clip-rule="evenodd" fill="#EA5B49" d="M643.067,57.259h-47.476c-0.793,0-1.436,0.643-1.436,1.436v0.889
	l25.174,19.254l25.173-19.254v-0.889C644.503,57.901,643.86,57.259,643.067,57.259"/>
<path fill="#D24B49" d="M642.16,40.921c-8.643,0-15.658,7.004-15.658,15.656c0,8.643,7.016,15.654,15.658,15.654
	c8.648,0,15.656-7.012,15.656-15.654C657.816,47.925,650.809,40.921,642.16,40.921 M642.194,67.403
	c-1.223,0-2.231-0.994-2.231-2.227s1.009-2.232,2.231-2.232c1.235,0,2.231,1,2.231,2.232S643.43,67.403,642.194,67.403
	 M645.148,49.146c-0.19,1.502-1.574,8.822-2.033,11.223c-0.081,0.449-0.473,0.771-0.93,0.771h-0.018
	c-0.469,0-0.869-0.334-0.955-0.795c-0.467-2.438-1.848-9.764-2.033-11.24c-0.223-1.785,1.168-3.361,2.967-3.361
	C643.955,45.743,645.374,47.341,645.148,49.146"/>
<path fill="#FFFFFF" d="M642.194,62.944c-1.223,0-2.231,1-2.231,2.232c0,1.234,1.009,2.227,2.231,2.227
	c1.235,0,2.231-0.992,2.231-2.227C644.426,63.944,643.43,62.944,642.194,62.944"/>
<path fill="#FFFFFF" d="M642.146,45.741c-1.799,0-3.189,1.578-2.967,3.363c0.186,1.477,1.566,8.803,2.033,11.24
	c0.086,0.461,0.486,0.795,0.955,0.795h0.018c0.457,0,0.849-0.322,0.93-0.773c0.459-2.396,1.843-9.715,2.033-11.221
	C645.374,47.343,643.955,45.741,642.146,45.741"/>
</svg>
